<svg
	xmlns="http://www.w3.org/2000/svg"
	viewBox="0 0 335.39 79.76"
	width="335"
	height="80"
>
	<title>mathes-logo</title>
	<path
		d="M351.77,61.79h14.48c-1.18-13.91-12.44-18.07-24.45-18.07s-24.14,3.72-24.14,18.18c0,10.08,8.69,13,17.6,15.12,10.83,2.3,17.26,4,17.26,8.77,0,5.47-5.68,7.23-10,7.23-5.63,0-11.1-2.64-11.6-8.68h-14.5c1,14.32,13.37,19.09,26,19.09s25.32-4.83,25.32-19.72c0-10.52-8.69-13.81-17.6-15.89-8.58-2.08-17.27-2.85-17.27-8.44,0-4.71,5.05-5.26,8.48-5.26,5.47,0,10,1.65,10.4,7.67M314.34,77.35c1.18-17.42-8-33.63-26.92-33.63-16.84,0-28.32,12.92-28.32,29.91,0,17.52,10.83,29.8,28.32,29.8,12.55,0,21.66-5.59,25.95-19.07H300c-1,3.51-5.9,7.34-12,7.34-8.58,0-13.19-4.38-13.62-14.35Zm-15.23-9.86H274.33c.32-4.38,2.79-12,12.66-12,7.4,0,10.72,4.16,12.12,12m-58.78,34.4h15.23V67.05c0-14-4.08-23.33-20.27-23.33a19.12,19.12,0,0,0-16.2,9.42h-.32V23.67H203.54v78.22h15.23V72.2c0-11.5,3.54-16.21,11.8-16.21,7.19,0,9.76,4.6,9.76,13.91Zm-50.64.66a56.94,56.94,0,0,0,8.9-.55V89.84a20.87,20.87,0,0,1-4.72.44c-5.14,0-6.43-1.32-6.43-6.57V57h11.15V45.25H187.44V23.67l-15.23,17V89.07c0,11.4,8,13.48,17.48,13.48m-36.18-.66H169c-1.4-2.3-1.93-7.45-1.93-12.6V59.82c0-13.58-13.3-16.1-24.35-16.1-12.44,0-25.21,4.49-26.06,19h15.23c.54-6.14,4.18-8.55,10.08-8.55,5.36,0,9.87,1.1,9.87,7.67.64,12.71-36.69-1.09-36.9,24.65,0,11.61,8.26,17,18.88,17,6.86,0,13.83-1.87,18.66-7a24.06,24.06,0,0,0,1.07,5.48M151.8,80c0,3.51-.43,13-12.34,13-4.93,0-9.33-1.54-9.33-7.23s4.29-7.45,9-8.33,10.08-1,12.66-3.29Z"
		transform="translate(-32.36 -23.67)"
	/>
	<polygon
		points="57 0 40.05 53.79 39.84 53.79 21.93 0 0 0 0 78.22 13.99 78.22 13.99 23.34 14.21 23.34 32.98 78.22 45.95 78.22 64.73 22.79 64.94 22.79 64.94 78.22 78.93 78.22 78.93 0 57 0"
	/>
</svg>
