<svg xmlns="http://www.w3.org/2000/svg" viewBox="0 0 2750.78 1455.63"> <style> .st5{fill:#819327}.st6{fill:#b4cd2f}.st7{fill:#cf8841}.st8{fill:#636c23}.st9{opacity:.2;fill:#262425}.st11{fill:#cda16e}.st16{fill:#644023}.st17{fill:#7e5635}.st19{fill:#202020}.st21{fill:#fbfbfb}.st22{fill-rule:evenodd;clip-rule:evenodd;fill:#7e5635}.st27{fill:#fff}.st84{fill-rule:evenodd;clip-rule:evenodd;fill:#433124}.st373{opacity:.5;fill:#819327}.st518{opacity:.43;fill:#a4765d}.st562{fill:#d5edf5}.st566{fill-rule:evenodd;clip-rule:evenodd;fill:#cda16e} </style> <linearGradient id="SVGID_1_" gradientUnits="userSpaceOnUse" x1="1375.39" y1="1455.63" x2="1375.39"> <stop offset="0" stop-color="#cce8f0"/> <stop offset=".6" stop-color="#8ad0e9"/> <stop offset=".92" stop-color="#5ac4ed"/> </linearGradient> <path fill="url(#SVGID_1_)" d="M0 0h2750.78v1455.63H0z"/> <path class="st5" d="M2352.1 1100.51l87.12-38.64 38.86-4.04 80.94-73.34 72.42-7.51 65.82-48.39 53.52 5v252.79h-580.83z"/> <path class="st6" d="M2697.26 928.6l53.52 4.98-52.74 23.16 20.9.91 8.36 12.1-95.86 7.23z"/> <path class="st7" d="M2335.77 1015.63s15.8 58.12 22.03 110.13c0 0 2.34 1.86 6.08-.35 0 0-8.07-49.05-27-110.01l-1.11.23z"/> <path class="st5" d="M2345.61 1027.1l-5.42.02 5.55 1.1c.2 2.5-.14 5.03-.74 7.38l-5.44-2.09 5.13 3.26c-1.5 5.1-4 9.02-4 9.02s-2.38-1.9-4.74-5.18l2.47-3.73-2.99 3a25.5 25.5 0 0 1-3.2-6.45l3.03-2.14-3.25 1.43a20.3 20.3 0 0 1-.75-7.02l3.57-1.5-3.5.7c.84-6.97 5.55-9.5 5.55-9.5s4.9-.16 8.12 9.2c.28.82.48 1.66.61 2.5z"/> <path class="st8" d="M2333.17 1016.18s-16.44 11.42-19.27 29.65c0 0 3.92-3.12 5.55-5.4l-1.11-2.77 1.81 1.9s1.67-2.1 2.73-3.74l-.75-3.55 2.21 2.53 12.54-19.4-3.71.78z"/> <path class="st5" d="M2336.88 1015.4s-8.02-.42-15.87 4.95-8.12 15.74-8.12 15.74 3.88-2.5 5.95-4.35l-1.08-3.47 1.99 2.75s2.75-2 4.58-4.15l-1.72-3.16 2.41 2.66s3.29-3.08 4.6-4.67c4.73-5.77 7.26-6.3 7.26-6.3z"/> <path class="st6" d="M2336.88 1015.4s-1.06-.35-6.21-1.86a120.1 120.1 0 0 0-7.46-1.94l-2.09-3.61-.59 3.47s-6-.84-9.89-4.25c0 0 6.68-4.23 13.33-2.82 6.64 1.4 11.08 4.87 12.91 11z"/> <path class="st8" d="M2340.67 1015.27s18.7 7.13 25.84 24.14c0 0-4.56-2.1-6.7-3.92l.43-2.94-1.3 2.28s-2.13-1.65-3.56-2.98l-.12-3.62-1.54 2.98-16.84-15.81 3.8-.13z"/> <path class="st5" d="M2337.07 1015.34s6.14-5.18 15.64-5.64c9.5-.46 15.97 7.64 15.97 7.64s-4.6.35-7.37.13l-1.22-3.42.07 3.4s-3.4.06-6.16-.54l-.53-3.56-.32 3.57s-4.48-.47-6.48-.95c-7.26-1.73-9.6-.63-9.6-.63z"/> <path class="st5" d="M2336.88 1015.4s.83-.76 4.92-4.22c3.43-2.9 6.03-4.8 6.03-4.8l.45-4.15 1.94 2.93s5.14-3.2 7.31-7.9c0 0-7.82-1.15-13.32 2.83-5.5 3.99-8.15 8.96-7.33 15.3z"/> <path class="st6" d="M2337.77 1014.6l-.89.8s-2.9-8.93-5.43-13.85c-.28-.56-.58-1.07-.89-1.56l2.62-3.02-3.6 1.59a20.06 20.06 0 0 0-3.09-3.29l2.92-3.32-4.24 2.31s-2.66-4.54-3.58-10.34c0 0 8.19-.33 12.92 7.83s3.26 22.86 3.26 22.86z"/> <path class="st6" d="M2337.77 1014.6s-1.75-.3-3.52 2.36 3.17 7.96 3.17 7.96 4.42-4.08 4.16-6.73c-.26-2.65-3.8-3.58-3.8-3.58z"/> <path class="st9" d="M2336.77 1016.56c.72 1.87.92 4.21.51 6.18a11.55 11.55 0 0 1-.5-6.18zM2327.28 987.32c5.9 3.08 9.74 10.3 8.97 16.92a23.77 23.77 0 0 0-8.97-16.92z"/> <path class="st9" d="M2331.85 1000.9c.23-1.03.84-1.7 1.84-2.05a2.66 2.66 0 0 1-1.84 2.05zM2329.27 995.69a2.09 2.09 0 0 1 1.97-1.38 2.09 2.09 0 0 1-1.97 1.38zM2326.07 991.8c.32-.9.93-1.2 1.83-.88-.46.61-1.07.9-1.83.88zM2315.49 1006.37c5.54-3.11 13.26-1.2 16.7 4.14a16.31 16.31 0 0 0-16.7-4.14zM2319.36 1007.49c.39.89.27 1.7-.36 2.44-.38-.9-.26-1.7.36-2.44z"/> <path class="st9" d="M2323.4 1007.16c.73.71.97 1.56.72 2.55a2.48 2.48 0 0 1-.72-2.55zM2326.3 1008.12c.73.85.96 1.82.7 2.9a3.1 3.1 0 0 1-.7-2.9zM2339.36 1006.5a16.04 16.04 0 0 1 14.05-7.71 25.2 25.2 0 0 0-14.05 7.71zM2343.36 1004.4a4 4 0 0 1 .8 3.33 4 4 0 0 1-.8-3.32zM2345.47 1003.61c.68.9.86 1.87.54 2.95a3.1 3.1 0 0 1-.54-2.95zM2349.52 1001.35a4.72 4.72 0 0 1 1.35 1.9c-1.12-.15-1.57-.78-1.35-1.9zM2351.54 1001.01c.68-.06 1 .25.98.93-.68.06-1-.25-.98-.93zM2315.5 1029.63c2-6.27 8.33-11.26 14.9-11.71a24.02 24.02 0 0 0-14.9 11.71z"/> <path class="st9" d="M2319.16 1026.32a2.67 2.67 0 0 1 1.53 2.3 2.67 2.67 0 0 1-1.53-2.3zM2320.93 1025.16c.72.32 1.13.87 1.22 1.66-.92-.18-1.32-.73-1.22-1.66zM2323.74 1022.38c.85.26 1.3.84 1.33 1.72a1.74 1.74 0 0 1-1.33-1.72zM2325.96 1021.3c.73.11 1.06.54.97 1.27-.73-.11-1.05-.54-.97-1.28zM2337.72 1026.33c1.08 5.3 2.06 10.71 2.89 16.06a40.28 40.28 0 0 1-2.89-16.06zM2345.42 1019.41a35.03 35.03 0 0 1 14.7 12.3c-4.58-4.56-9.4-8.6-14.7-12.3zM2343.68 1013.37c5.01-2.6 11.7-2.77 16.84-.38a35.46 35.46 0 0 0-16.84.38zM2351.12 1013.42c.64.73.79 1.54.43 2.44a2.2 2.2 0 0 1-.43-2.44zM2355.62 1013.6c.65.73.8 1.54.44 2.44a2.2 2.2 0 0 1-.44-2.44zM2357.38 1014.1c.63.4.77.92.42 1.57-.64-.39-.78-.91-.42-1.57zM2362.5 1014.33c.7.4.95.98.72 1.77-.72-.4-.96-.99-.73-1.77zM2364.51 1015.21c.64.16.8.54.5 1.12-.63-.17-.8-.54-.5-1.12z"/> <path class="st9" d="M2352.38 1029.31a4.42 4.42 0 0 1 1.2-3.4 4.42 4.42 0 0 1-1.2 3.4zM2351.5 1027.15c-.35-1-.03-1.68.96-2.04-.06.8-.39 1.48-.97 2.04zM2332.12 1028.9a5.36 5.36 0 0 1 4.54-1.66c-1.3.84-3 1.45-4.54 1.66zM2334.66 1035.53a4.7 4.7 0 0 1 2.88-3.32 8.85 8.85 0 0 1-2.88 3.32zM2339.58 1030.73a3.45 3.45 0 0 1 3.76 1.2 12.1 12.1 0 0 1-3.76-1.2zM2340.12 1028.36c1.13-.43 2.05-.15 2.76.83-1 0-1.92-.27-2.76-.83zM2339.95 1025.03c.96-.4 1.85-.3 2.69.3-.95.41-1.85.31-2.69-.3zM2318.71 1034.01c.81.9 1.3 1.93 1.47 3.13a3.2 3.2 0 0 1-1.47-3.13zM2319.95 1032.62c.83.47 1.21 1.18 1.14 2.13a2.08 2.08 0 0 1-1.14-2.13zM2323.83 1029.35c.75.19 1.09.67 1 1.45-.75-.2-1.09-.68-1-1.45zM2326.1 1028.17c.66.02.9.34.74.98-.65-.02-.9-.35-.73-.98z"/> <g> <path class="st7" d="M2228.53 1064.1s13.92 26.73 24.07 78.12c0 0 2.04.59 5.6-1.9 0 0-9.3-41.06-28.57-76.54l-1.1.32z"/> <path class="st5" d="M2239.22 1074.8l-5.4.42 5.61.68c.4 2.47.25 5.02-.18 7.41l-5.58-1.67 5.36 2.86c-1.12 5.2-3.3 9.3-3.3 9.3s-2.52-1.72-5.12-4.8l2.18-3.91-2.75 3.2a25.5 25.5 0 0 1-3.69-6.17l2.86-2.36-3.13 1.67a20.3 20.3 0 0 1-1.28-6.95l3.44-1.77-3.42.96c.3-7 4.8-9.89 4.8-9.89s4.88-.53 8.8 8.56c.34.8.6 1.62.8 2.45z"/> <path class="st8" d="M2225.98 1064.85s-15.52 12.63-16.96 31.02c0 0 3.67-3.41 5.12-5.82l-1.32-2.66 1.96 1.76s1.5-2.24 2.43-3.95l-1.01-3.47 2.4 2.35 11.03-20.3-3.65 1.07z"/> <path class="st5" d="M2229.63 1063.78s-8.03.2-15.45 6.14c-7.43 5.95-6.9 16.3-6.9 16.3s3.67-2.78 5.6-4.78l-1.35-3.38 2.2 2.6s2.59-2.2 4.25-4.49l-1.96-3.02 2.61 2.47s3.04-3.32 4.22-5c4.3-6.11 6.78-6.84 6.78-6.84z"/> <path class="st6" d="M2229.63 1063.78s-1.1-.27-6.34-1.38c-4.39-.93-7.59-1.37-7.59-1.37l-2.35-3.44-.32 3.5s-6.04-.38-10.19-3.48c0 0 6.34-4.73 13.08-3.83 6.73.9 11.42 4.02 13.7 10z"/> <path class="st8" d="M2233.4 1063.36s19.18 5.7 27.59 22.12c0 0-4.7-1.74-6.97-3.4l.2-2.97-1.13 2.38s-2.25-1.49-3.77-2.7l-.4-3.6-1.3 3.09-18-14.5 3.78-.42z"/> <path class="st5" d="M2229.8 1063.7s5.74-5.62 15.18-6.8c9.43-1.18 16.5 6.41 16.5 6.41s-4.55.7-7.33.69l-1.49-3.32.33 3.38s-3.38.33-6.18-.07l-.8-3.51-.04 3.6s-4.51-.14-6.54-.47c-7.37-1.18-9.62.1-9.62.1z"/> <path class="st5" d="M2229.63 1063.78s.77-.81 4.58-4.58c3.2-3.15 5.65-5.25 5.65-5.25l.13-4.16 2.16 2.78s4.88-3.59 6.7-8.43c0 0-7.9-.57-13.08 3.83-5.18 4.39-7.44 9.54-6.14 15.81z"/> <path class="st6" d="M2230.45 1062.93l-.82.85s-3.58-8.68-6.47-13.4c-.32-.53-.66-1.02-1-1.48l2.37-3.21-3.46 1.85a20.07 20.07 0 0 0-3.33-3.04l2.66-3.53-4.05 2.62s-3-4.33-4.35-10.04c0 0 8.13-.95 13.47 6.83 5.33 7.78 4.98 22.55 4.98 22.55z"/> <path class="st6" d="M2230.45 1062.93s-1.77-.17-3.33 2.61c-1.55 2.78 3.76 7.7 3.76 7.7s4.1-4.41 3.64-7.03c-.45-2.63-4.07-3.28-4.07-3.28z"/> <path class="st9" d="M2221.08 1037.51a19.37 19.37 0 0 1 7.22 14.67 35.8 35.8 0 0 0-7.22-14.67zM2215.96 1040.67a5.65 5.65 0 0 1 3.5-2.36 5.65 5.65 0 0 1-3.5 2.36zM2220.52 1044.4c.33-.97.99-1.55 1.99-1.74a2.46 2.46 0 0 1-1.99 1.74zM2216.06 1056.48a4.42 4.42 0 0 1 1.34 3.35 4.42 4.42 0 0 1-1.34-3.35zM2218.98 1057.05a3.1 3.1 0 0 1 .84 2.87 3.1 3.1 0 0 1-.84-2.87zM2210.3 1057.19c.68.56.86 1.25.54 2.07a1.68 1.68 0 0 1-.54-2.07zM2237.21 1050.82a7.02 7.02 0 0 1 1.2 3.4 3.3 3.3 0 0 1-1.2-3.4zM2241.27 1048.03a2.82 2.82 0 0 1 2.08 2.5 5.38 5.38 0 0 1-2.08-2.5zM2235.2 1053.73c.61.61.92 1.36.9 2.23-.93-.49-1.23-1.23-.9-2.23zM2231.79 1057.04c.57-4.1 3.8-7.91 7.75-9.14a22.18 22.18 0 0 0-7.75 9.14zM2220.8 1056.63c2.5.53 5.03 2.33 6.34 4.53a89.05 89.05 0 0 1-6.34-4.53zM2209.89 1077.5a23 23 0 0 1 12.18-10.2 61.08 61.08 0 0 0-12.18 10.2zM2217.59 1078.67c.96.59 1.5 1.44 1.58 2.56a3.13 3.13 0 0 1-1.58-2.56zM2219.23 1076.12c.91.24 1.44.83 1.6 1.76a2.02 2.02 0 0 1-1.6-1.76zM2231.09 1074.18a176.76 176.76 0 0 1 3.93 16.83 51.96 51.96 0 0 1-3.93-16.83zM2233.76 1078.9c1.44-.02 3.09.63 4.13 1.63a6.22 6.22 0 0 1-4.13-1.64zM2234.71 1077.03a2.4 2.4 0 0 1 2.93.82 5.2 5.2 0 0 1-2.93-.82zM2226.52 1078.88c.6-1.1 1.97-2.1 3.15-2.34a5.16 5.16 0 0 1-3.15 2.34zM2226.46 1075.61c.32-.78.9-1.13 1.74-1.04-.31.79-.9 1.13-1.74 1.04zM2228.6 1084.15c.2-1.13.82-1.97 1.85-2.5a3.34 3.34 0 0 1-1.85 2.5zM2233.17 1072.95a4.94 4.94 0 0 1 3.41-1.71 4.94 4.94 0 0 1-3.41 1.71zM2237.8 1066.7a29.67 29.67 0 0 1 13.93 10.54 94.2 94.2 0 0 0-13.93-10.53zM2237.03 1060.85a13.65 13.65 0 0 1 9.33-2.56c-3.12.83-6.22 1.68-9.33 2.56zM2247.78 1059.57a3.8 3.8 0 0 1 1.02 3.18 3.8 3.8 0 0 1-1.02-3.18zM2250.42 1060.4c.68.52.87 1.17.57 1.97-.68-.51-.87-1.17-.57-1.97zM2230.2 1064.99c.73 1.74.95 3.96.55 5.8a10.3 10.3 0 0 1-.54-5.8z"/> </g> <g> <path class="st7" d="M2295.35 1074.74s4.72 19.57 3.03 54.5c0 0 1.23.7 3.94-.33 0 0 .58-28.1-6.21-54.2l-.76.03z"/> <path class="st5" d="M2300.55 1083.39l-3.56-.6 3.53 1.35c-.15 1.67-.65 3.3-1.31 4.78l-3.35-1.98 3.01 2.71c-1.56 3.2-3.64 5.5-3.64 5.5s-1.35-1.52-2.54-3.94l2.04-2.18-2.3 1.63a17.03 17.03 0 0 1-1.4-4.6l2.24-1.06-2.3.58a13.55 13.55 0 0 1 .3-4.71l2.5-.6-2.37.08c1.33-4.5 4.71-5.64 4.71-5.64s3.24.44 4.32 6.97c.1.56.13 1.14.12 1.71z"/> <path class="st8" d="M2293.58 1074.82s-12.1 5.69-15.99 17.37c0 0 2.93-1.62 4.26-2.94l-.43-1.94.99 1.45s1.33-1.2 2.21-2.16l-.1-2.42 1.17 1.91 10.42-11.38-2.53.1z"/> <path class="st5" d="M2296.11 1074.71s-5.23-1.16-11 1.5-7.1 9.45-7.1 9.45 2.83-1.21 4.4-2.2l-.32-2.4 1 2.03s2.03-1 3.48-2.22l-.78-2.27 1.29 2.02s2.5-1.67 3.54-2.57c3.76-3.27 5.49-3.34 5.49-3.34z"/> <path class="st6" d="M2296.11 1074.71s-.66-.35-3.88-1.91c-2.7-1.3-4.7-2.11-4.7-2.11l-.97-2.61-.77 2.22s-3.86-1.22-6.04-3.9c0 0 4.87-2.04 9.08-.37 4.22 1.66 6.76 4.44 7.28 8.68z"/> <path class="st8" d="M2298.62 1075.05s11.52 6.77 14.32 18.77c0 0-2.76-1.89-3.97-3.32l.6-1.9-1.1 1.36s-1.22-1.32-2.01-2.36l.32-2.4-1.34 1.8-9.33-12.29 2.51.34z"/> <path class="st5" d="M2296.24 1074.7s4.62-2.73 10.93-1.98c6.3.76 9.66 6.81 9.66 6.81s-3.06-.28-4.86-.73l-.43-2.4-.33 2.25s-2.25-.33-4-1.04l.05-2.4-.6 2.32s-2.9-.81-4.17-1.35c-4.59-1.95-6.25-1.49-6.25-1.49z"/> <path class="st5" d="M2296.11 1074.71s.63-.4 3.71-2.23c2.58-1.52 4.5-2.49 4.5-2.49l.76-2.68.95 2.15s3.74-1.54 5.7-4.39c0 0-5.03-1.63-9.1.38-4.06 2.01-6.35 5-6.52 9.26z"/> <path class="st6" d="M2296.78 1074.3l-.67.41s-.92-6.2-2.04-9.72c-.12-.4-.26-.77-.4-1.12l2.05-1.7-2.54.64a13.4 13.4 0 0 0-1.67-2.5l2.3-1.87-3.06 1.05s-1.25-3.29-1.2-7.2c0 0 5.42.69 7.63 6.59 2.2 5.9-.4 15.41-.4 15.41z"/> <path class="st6" d="M2296.78 1074.3s-1.12-.4-2.57 1.15c-1.46 1.55 1.2 5.59 1.2 5.59s3.36-2.2 3.48-3.97c.13-1.77-2.1-2.78-2.1-2.78z"/> <path class="st9" d="M2294.8 1056.31c2.27 2.88 3.2 7.11 2.32 10.67a23.9 23.9 0 0 0-2.32-10.67zM2290.97 1057.53a3.77 3.77 0 0 1 2.65-.96 3.77 3.77 0 0 1-2.65.96zM2293.33 1060.69c.37-.58.89-.85 1.57-.81-.37.57-.9.84-1.57.8zM2288.5 1067.8c.44.75.55 1.54.32 2.38a2.95 2.95 0 0 1-.33-2.38zM2290.3 1068.64c.36.65.39 1.32.07 2a2.07 2.07 0 0 1-.08-2zM2284.65 1067.33c.35.47.35.95.02 1.43a1.12 1.12 0 0 1-.02-1.43zM2303.11 1067.54c.28.77.36 1.57.23 2.4a2.2 2.2 0 0 1-.23-2.4zM2306.19 1066.38c.73.45 1.04 1.1.95 1.96a3.6 3.6 0 0 1-.95-1.96zM2301.34 1069.1c.3.5.38 1.02.23 1.58-.53-.46-.6-1-.23-1.59zM2298.6 1070.69a7.78 7.78 0 0 1 6.49-4.67 14.81 14.81 0 0 0-6.5 4.67zM2291.54 1068.66a6.84 6.84 0 0 1 3.38 3.95 59.5 59.5 0 0 1-3.38-3.95zM2281.11 1080.42a15.36 15.36 0 0 1 9.54-4.64 40.8 40.8 0 0 0-9.54 4.64zM2285.91 1082.43c.53.53.74 1.17.62 1.9a2.09 2.09 0 0 1-.62-1.9zM2287.39 1081.04c.55.3.8.76.75 1.4-.55-.31-.8-.78-.75-1.4zM2295.38 1081.68c.14 3.81.09 7.74-.15 11.54a34.7 34.7 0 0 1 .15-11.54zM2296.36 1085.17c.93.22 1.9.91 2.41 1.73a4.15 4.15 0 0 1-2.41-1.73zM2297.28 1084.12a1.6 1.6 0 0 1 1.76 1 3.47 3.47 0 0 1-1.76-1zM2291.67 1084a3.45 3.45 0 0 1 2.41-1.02 3.45 3.45 0 0 1-2.4 1.02zM2292.16 1081.87c.33-.46.76-.6 1.3-.4-.34.46-.77.6-1.3.4zM2292.17 1087.75c.31-.7.85-1.15 1.6-1.32-.32.7-.85 1.14-1.6 1.32zM2296.93 1081.22a3.3 3.3 0 0 1 2.49-.56 3.3 3.3 0 0 1-2.5.56zM2300.94 1077.92a19.81 19.81 0 0 1 7.33 9.07 62.88 62.88 0 0 0-7.33-9.07zM2301.38 1074a9.12 9.12 0 0 1 6.46-.15c-2.16.03-4.3.08-6.46.16zM2308.55 1074.9c.4.72.44 1.46.15 2.23a2.54 2.54 0 0 1-.15-2.23zM2310.13 1075.87c.36.44.38.9.05 1.37-.36-.45-.38-.9-.05-1.37zM2296.3 1075.59a6.88 6.88 0 0 1-.59 3.85c-.2-1.25.03-2.72.58-3.85z"/> </g> <g> <linearGradient id="SVGID_2_" gradientUnits="userSpaceOnUse" x1="2031.74" y1="1142.85" x2="2750.78" y2="1142.85"> <stop offset=".36" stop-color="#fbc567"/> <stop offset="1" stop-color="#efc483"/> </linearGradient> <path d="M2750.78 1125.42l-83.49-20.88a85.04 85.04 0 0 0-32.59-1.7l-82.17 11.69a85.04 85.04 0 0 1-27.57-.6l-70.87-13.23a85.04 85.04 0 0 0-37.36 1.38l-62.82 16.63a85.02 85.02 0 0 1-12.41 2.31l-222.39 24.58a85.04 85.04 0 0 0-31.84 10.12l-55.53 30.73h719.04v-61.03z" fill="url(#SVGID_2_)"/> <path class="st11" d="M2750.78 1169.4l-121.29-3.05a85.04 85.04 0 0 1-25.62-4.63l-68.28-23.58a85.04 85.04 0 0 0-43.68-3.16l-157.64 30.05a85.04 85.04 0 0 1-25.62.95l-94.01-10.78c-4.9-.57-9.85-.7-14.78-.4l-291.77 17.5c-8.36.5-16.6 2.23-24.44 5.14l-24.35 9.01 891.48-.07v-16.98z"/> </g> <path class="st6" d="M2559.02 984.5l26.09 10.46 46.33 12.67-81.04 11.14 51.47 7.72 6.09 17.32-56.35-5.27-73.53 19.3z"/> <g> <path class="st562" d="M1010.67 1007.17c-.2-5.98 4.78-16.16 10.47-18.04 5.69-1.88 11.88-1.13 17.77-.01 2.86.54 5.88 1.16 8.63.18 3.71-1.33 5.8-5.14 8.11-8.33 9.26-12.8 26.3-18.5 42-16.73 9.08 1.03 17.36 4.37 25.34 8.67 13.18 7.1 11.82 8.36 25.26 7.56 21.1-1.25 38.55-2.4 58.03 8.72 2.49 1.42 4.94 2.99 7.71 3.7 2.58.68 5.3.58 7.96.59 8.05 0 16.1.98 23.91 2.9 6.88 1.7 14.16 4.6 17.6 10.8-45.38.4-252.8-.17-252.8 0z"/> </g> <g> <path class="st562" d="M2095.68 851.3c10.15-16.01 34.14-21.1 49.91-10.6 7.26-17.42 19.48-33.58 36.65-41.38s39.67-5.36 52.04 8.9c4.43 5.1 8.05 11.88 14.62 13.5 7.68 1.9 15.39-4.35 23.22-3.27 5.56.76 9.89 5.01 14.71 7.89 23.96 14.28 61.29 4 79.71 24.95h-270.86z"/> </g> <g> <path class="st562" d="M410.45 310.17c3.28 3.53 7.76.1 12.08.1 4.81 0 9.65 1.6 13.4 4.64 1.14.93 2.26 2.03 3.71 2.35 1.08.23 2.2 0 3.29-.18 10.2-1.74 29.57 3.81 31.1 9.08H215.9c.4-1.43 14.98-12.29 23.26-14.07 6.16-1.32 12.53-1.23 18.82-.89 1.93.1 4.18.1 5.37-1.41.56-.7.77-1.6 1-2.46 3.87-14.78 19.5-23.97 34-25.12 8.6-.68 13.43.97 20.1 6.5 5.62 4.68 11.15 10.63 18.84 11.44 3.86.42 7.7-.59 11.53-1.28 11.62-2.1 23.54-1.32 35.1.81 10.35 1.92 19.1 2.5 26.48 10.45l.04.04z"/> </g> <path fill="#7acceb" d="M0 1186.38h2750.78v269.25H0z"/> <linearGradient id="SVGID_3_" gradientUnits="userSpaceOnUse" y1="1339.13" x2="2750.78" y2="1339.13"> <stop offset=".36" stop-color="#fbc567"/> <stop offset="1" stop-color="#efc483"/> </linearGradient> <path d="M823.5 1226.34c97.64 0 215.33 9.25 214.55 37.3-.78 28.3-136.6 22.09-136.6 43.85 0 8.62 40.5 15.5 212.88 25.85 216.64 13.02 490.6-108.14 812.72-107l823.73-3.7v232.99H0v-229.3l823.5.01z" fill="url(#SVGID_3_)"/> <path d="M1475.15 1197.73l-17.77-1.47-11.13 4.59-15.82 4.59h-21.88l-21.1 8.5-25.62.82c-32.65 6.84-81.1 17.14-83.1 17-2.87-.2-22.07-7.6-24.92-8.4-2.86-.8-30.64-1.6-30.64-1.6l-32.68-12.4s-30.93 9.27-37.59 8.2l-89.1-30.93H1524.85l-49.7 11.1z" fill-rule="evenodd" clip-rule="evenodd" fill="#5fbdd4"/> <g> <linearGradient id="SVGID_4_" gradientUnits="userSpaceOnUse" x1="1063.8" y1="1141.51" x2="1524.85" y2="1141.51"> <stop offset=".36" stop-color="#fbc567"/> <stop offset="1" stop-color="#efc483"/> </linearGradient> <path d="M1475.15 1164.45l-17.77 2.93-11.13-9.18-15.82-9.18h-21.88l-21.1-16.99-25.62-1.65c-32.65-13.67-81.1-34.27-83.1-33.99-2.87.4-22.07 15.2-24.92 16.8-2.86 1.6-30.64 3.19-30.64 3.19l-32.68 24.79s-30.93-18.53-37.59-16.4l-89.1 61.86H1524.85l-49.7-22.18z" fill-rule="evenodd" clip-rule="evenodd" fill="url(#SVGID_4_)"/> <path class="st566" d="M1408.55 1149.02l-24.9 12.99 10.94-10.74 3.32-5.18-10.35-13.91-.1-.15.16.13zM1456.5 1175.97c-.68-.39-23.24-12.1-23.24-13.18s4.78-5.27 4.78-5.27l-8.2-8.5.66.04 15.75 9.14 11.13 9.18c.62.51-.2 8.98-.88 8.6zM1218.84 1151.14c1.92 3.85 4.1 9.91 4.1 9.91l.62-11.34.58-10.65-12.4-5.4 11.43-17.28-32.68 24.79s24.46 6.09 26.25 6.89c.54.24 1.3 1.46 2.1 3.08zM1256.72 1123.67l3.87 3.44 6.9 6.12 8.02 7.13-1.06-8.92-.34-2.87 7.4-8.8-1.76-1.56-7.46-6.64-3.57-3.19 10-11.99c-2.06.29-12.61 8.06-19.41 12.97a93.82 93.82 0 0 1-5.5 3.82c-.12.07-.28.13-.49.2l3.4 10.3z"/> </g> <g> <path class="st562" d="M1255.97 1283.54c0-1.63-35.85-2.94-80.06-2.94s-80.05 1.31-80.05 2.94c0 1.33 23.96 2.45 56.86 2.82a.25.25 0 0 0-.04.12c0 1.63 18.46 2.94 41.24 2.94s41.24-1.31 41.24-2.94c0-.3-.67-.6-1.91-.89 14.05-.53 22.72-1.25 22.72-2.05z"/> <linearGradient id="SVGID_5_" gradientUnits="userSpaceOnUse" x1="1104" y1="1270.08" x2="1243.45" y2="1270.08"> <stop offset=".36" stop-color="#fbc567"/> <stop offset="1" stop-color="#efc483"/> </linearGradient> <path fill-rule="evenodd" clip-rule="evenodd" fill="url(#SVGID_5_)" d="M1217.94 1269.77l-3.2.05-4.28-3.31-2.85 1.38v-.02l-17.3-5.18-18.1-6.06-10.57 8.51h-10.96l-7.93 4.6-5.58 4.6-8.9-1.47-24.27 10.67 103.61-.27h35.84z"/> <path class="st566" d="M1212.9 1273.7s-6.69 4.38-7.14 4.9c.3-.5 2.81-4.96 3.07-5.38.28-.44 3.04-3.26 3.04-3.26l-1.41-3.45 4.27 3.31 3.2-.05-5.14 2.25.12 1.68zM1161.64 1265.14l12.47 6.5-5.48-5.38-1.66-2.59 5.18-6.97.06-.07-.08.06zM1137.61 1278.64c.35-.2 11.65-6.06 11.65-6.6s-2.4-2.64-2.4-2.64l4.11-4.26-.33.02-7.89 4.58-5.58 4.6c-.3.26.1 4.5.44 4.3z"/> </g> <g> <path class="st7" d="M2058.71 1047.64s24.04 149.34 63.68 274.78c0 0-3.42 6.66-14.27 5.5 0 0-32.35-120.58-52.2-279.67l2.8-.61z"/> <path class="st8" d="M2065.22 1046.2s49.43 9.1 74.8 47.87c0 0-12.21-3.09-18.3-6.62l-.32-7.47-2.17 6.24s-6-3.12-10.13-5.76l-1.95-8.88-2.44 8.07-48.8-31.4 9.3-2.04z"/> <path class="st5" d="M2055.91 1048.25s17.92-9.25 41.44-5.1c23.52 4.14 34.88 27.58 34.88 27.58s-11.46-1.7-18.12-3.78l-1.1-9.07-1.72 8.36s-8.35-1.71-14.78-4.74l.68-9.01-2.77 8.59s-10.72-3.66-15.35-5.94c-16.81-8.28-23.16-6.89-23.16-6.89z"/> <path class="st8" d="M2047.1 1051.88s-35.4 35.69-34.09 82c0 0 8.26-9.5 11.25-15.89l-4-6.3 5.34 3.88s3.15-5.99 5.03-10.51l-3.47-8.4 6.62 5.23 22.13-53.64-8.8 3.63z"/> <path class="st5" d="M2055.42 1048.31s-19.41-5.47-41.62 3.31c-22.21 8.79-28.63 34.03-28.63 34.03s10.88-3.96 17-7.34l-.75-9.1 3.36 7.84s7.84-3.36 13.53-7.6l-2.47-8.7 4.43 7.85s9.77-5.73 13.85-8.9c14.8-11.48 21.3-11.39 21.3-11.39z"/> <path class="st5" d="M2055.91 1048.25s-2.67-.86-15.63-4.55c-10.83-3.08-18.77-4.74-18.77-4.74l-5.31-9.03-1.4 8.73s-15.08-2.01-24.92-10.49c0 0 16.7-10.76 33.41-7.34 16.71 3.43 27.92 12.05 32.62 27.42z"/> <path class="st6" d="M2053.06 1047.37l2.85.88s-2.59-23.42-1.91-37.32c.06-1.55.21-3.04.42-4.47l-9.12-4.2 9.87-.1a50.4 50.4 0 0 1 3.66-10.71l-10.12-4.57 12.1.89s1.38-13.16-2.54-27.38c0 0-19.06 7.74-21.43 31.31-2.36 23.57 16.22 55.67 16.22 55.67z"/> <path class="st518" d="M2058.71 1047.64s24.04 149.34 63.68 274.78c0 0-3.42 6.66-14.27 5.5 0 0-32.35-120.58-52.2-279.67l2.8-.61z"/> <path class="st5" d="M2048.07 1084.08l12.41-5.58-11.55 8.28c2.11 5.92 5.52 11.36 9.33 16.1l10.29-10.4-8.35 12.75c8.73 10.12 18.5 16.49 18.5 16.49s3.45-6.8 5.47-16.75l-9.52-5.96 9.94 3.74c.94-5.4 1.39-11.6.66-18.06l-9.15-1.75 8.92-.1a50.98 50.98 0 0 0-5.58-16.84l-9.71.25 8.7-2.02c-9.12-15.05-22.52-15.98-22.52-15.98s-11.37 4.72-9.04 29.47c.2 2.16.62 4.28 1.2 6.36z"/> <path class="st6" d="M2055.91 1048.25s2.07-1.9 12.29-10.68c8.55-7.34 15.06-12.17 15.06-12.17l1.04-10.43 4.93 7.34s12.85-8.14 18.23-19.96c0 0-19.67-2.77-33.41 7.34-13.74 10.1-20.3 22.63-18.14 38.56z"/> <path class="st6" d="M2053.06 1047.37s3.7-2.51 10.49 1.74 1 21.48 1 21.48-14.34-4.76-16.5-11.09 5.01-12.13 5.01-12.13z"/> <path class="st9" d="M2046.54 977.79c-6.94 10.95-8.37 26.04-3.6 38.1a66.96 66.96 0 0 1 3.6-38.1zM2090.32 1007.25c-12.61 1.66-24.39 11.64-28.07 23.82a48.85 48.85 0 0 1 28.07-23.82zM2113.83 1053.69c-10.82-7.62-25.9-10.27-38.66-6.78a75.45 75.45 0 0 1 38.66 6.78zM2041.87 1033.55c-9.99-8.4-25.02-11.53-37.52-7.82a62.14 62.14 0 0 1 37.52 7.82zM2056.24 1049.8a40.66 40.66 0 0 0 6.2 15.08 40.66 40.66 0 0 0-6.2-15.07zM2066.44 1072.42c1.43 13.42 4.1 27.1 7.88 40.06a233.33 233.33 0 0 0-7.88-40.06zM2082.05 1091.87a19.6 19.6 0 0 0-10-4.77 19.6 19.6 0 0 0 10 4.77zM2080.24 1076.85a12.67 12.67 0 0 0-8.7-1.08 12.67 12.67 0 0 0 8.7 1.08zM2065.19 1083.1c-4.14.37-8.42 3.2-10.38 6.87 3.52-2.13 7.05-4.47 10.38-6.88zM2029.6 1050.16c-10.62-.56-22.1 5.4-27.73 14.46a50.62 50.62 0 0 1 27.74-14.46zM2011.6 1061.08c-.39 2.73.17 5.27 1.67 7.59.4-2.74-.16-5.27-1.66-7.6zM2020.52 1058.62c-.48 1.56-.04 2.79 1.3 3.7.49-1.56.05-2.8-1.3-3.7zM2033.2 1089.17a10.06 10.06 0 0 0-3.46-6.7c.1 2.3 1.58 5.22 3.46 6.7z"/> </g> <g> <path class="st27" d="M1458.54 1033.16c2.58-.61 5.24-.85 7.9-.92 2.67-.06 5.36.11 8.04.57 2.67.49 5.35 1.25 7.88 2.56a15.57 15.57 0 0 1 6.46 5.89l-3.32.3a22.02 22.02 0 0 1 2.22-4.15c.28-.43.57-.85.9-1.26a21 21 0 0 1 4.39-4.39c1.72-1.2 3.7-2.08 5.74-2.42l1.53-.17c.51-.01 1.03.07 1.53.1l.75.06.73.2c.48.13.96.26 1.42.4-1.97.08-3.85.23-5.54.96-1.68.72-3.17 1.7-4.46 2.94a25.6 25.6 0 0 0-4.67 6.59c-.4.8-.81 1.67-1.08 2.41l-1.26 3.54-2.05-3.24a13.62 13.62 0 0 0-5.03-4.5 32 32 0 0 0-6.84-2.72c-4.86-1.37-10-2.1-15.24-2.75zM1569.6 908.74a20.75 20.75 0 0 1 7.97-.17c1.33.26 2.69.6 3.94 1.29a7.86 7.86 0 0 1 3.23 2.93l-1.64.15a12.02 12.02 0 0 1 3.74-4.9 7.14 7.14 0 0 1 2.87-1.22 6 6 0 0 1 2.98.3c-.99.04-1.92.12-2.77.48-.84.36-1.58.86-2.23 1.47-.65.62-1.18 1.35-1.67 2.1-.48.76-.9 1.62-1.21 2.4l-.65 1.66-1-1.51a7.28 7.28 0 0 0-2.52-2.25 14.81 14.81 0 0 0-3.42-1.35c-2.42-.7-5-1.05-7.62-1.38zM1358.05 1001.58c1.3-.31 2.62-.43 3.95-.46 1.34-.04 2.68.06 4.02.29 1.33.26 2.68.6 3.93 1.29a7.86 7.86 0 0 1 3.23 2.92l-1.64.15a11.98 11.98 0 0 1 3.75-4.9 7.13 7.13 0 0 1 2.86-1.2 6 6 0 0 1 2.99.29 7.6 7.6 0 0 0-2.78.48c-.83.36-1.58.85-2.23 1.47-.64.62-1.18 1.35-1.67 2.1-.47.76-.9 1.62-1.2 2.4l-.66 1.66-1-1.51a7.27 7.27 0 0 0-2.52-2.25 14.78 14.78 0 0 0-3.42-1.35c-2.42-.7-5-1.05-7.61-1.38zM1404.75 939.96a20.75 20.75 0 0 1 7.97-.17c1.33.26 2.69.6 3.94 1.3a7.86 7.86 0 0 1 3.23 2.92l-1.65.15a11.98 11.98 0 0 1 3.75-4.9 7.13 7.13 0 0 1 2.87-1.21 6 6 0 0 1 2.98.3c-.99.03-1.93.11-2.77.48-.84.35-1.58.85-2.23 1.46-.65.62-1.18 1.35-1.68 2.11-.47.76-.9 1.61-1.2 2.4l-.66 1.66-.99-1.52a7.28 7.28 0 0 0-2.52-2.25 14.8 14.8 0 0 0-3.42-1.35c-2.42-.7-5-1.05-7.62-1.38z"/> </g> <g> <path class="st562" d="M2568.94 533.74c5.17 5.56 12.23.16 19.05.16a33.7 33.7 0 0 1 21.1 7.3c1.81 1.48 3.59 3.2 5.86 3.7 1.7.38 3.47.02 5.19-.28 16.08-2.74 46.6 6.02 49.02 14.32h-406.89c.64-2.26 23.62-19.37 36.67-22.18 9.71-2.08 19.76-1.93 29.68-1.4 3.03.17 6.58.16 8.46-2.23.87-1.1 1.2-2.52 1.56-3.88 6.12-23.3 30.75-37.77 53.6-39.59 13.56-1.07 21.18 1.52 31.68 10.25 8.86 7.37 17.59 16.74 29.7 18.03 6.1.65 12.16-.93 18.18-2.02 18.32-3.32 37.12-2.08 55.33 1.28 16.32 3.02 30.12 3.93 41.75 16.47l.06.07z"/> </g> <g> <path class="st562" d="M103.62 739.37c-.32-9.25 7.4-25 16.18-27.9s18.38-1.74 27.48-.01c4.42.84 9.1 1.8 13.33.28 5.75-2.06 8.98-7.94 12.55-12.89 14.3-19.78 40.66-28.6 64.92-25.85 14.05 1.6 26.84 6.75 39.18 13.4 20.38 10.98 18.28 12.92 39.05 11.69 32.63-1.94 59.6-3.73 89.72 13.48 3.84 2.2 7.64 4.61 11.91 5.73 4 1.04 8.19.89 12.31.9 12.44 0 24.88 1.52 36.97 4.5 10.63 2.6 21.88 7.1 27.2 16.67-70.16.61-390.81-.26-390.8 0z"/> </g> <g> <path class="st5" d="M0 973l20.32-7.48 18.42 4.46 23.44-24h7.8l28.47-11.15 71.43 50.78h16.39l81.76 68.08 28.52 5.02 77.67 79.1 19.99 48.57H0z"/> <path class="st6" d="M98.45 934.83l-4.25 9.7 16.28 12.95-18.37-5.43L78.75 974l28.8 20.22-30.89-12.53-4.6 5.43 4.6 7.1-9.18-2.1v2.1l14.6 14.2 33.82-8.36 37.16 20.04-4.17-34.23 20.99-.26zM186.27 985.6l-11.16 7.8 19.63 12.1-19.63-5.85-8.35 12.11s74.24 28.2 89.26 31.93c2.8.7-69.75-58.08-69.75-58.08z"/> <path class="st5" d="M295.28 1060.58s6.26-5.34 6.26-7.02c0-1.68-4.43 1.67-6.26 5.03 0 0 3.82-9.98 3.13-11.24-.69-1.27-3.13 2.9-4.2 10.66 0 0-4.42-5.85-5.8-5-1.37.86 5.04 6.47 5.04 6.47s-4.36-3.1-5.23-2c-.88 1.12 6.66 3.71 6.66 3.71M82.04 942.35s6.26-5.35 6.26-7.03c0-1.67-4.43 1.67-6.26 5.04 0 0 3.82-9.98 3.13-11.25-.69-1.26-3.13 2.9-4.2 10.67 0 0-4.42-5.86-5.8-5-1.37.85 5.04 6.47 5.04 6.47s-4.36-3.1-5.23-2c-.88 1.11 6.66 3.7 6.66 3.7M336.35 1102.08s8.19-.84 9.14-2.22c.95-1.37-4.59-1.14-8.01.59 0 0 8.81-6.04 8.97-7.47.15-1.44-4.22.6-9.52 6.38 0 0-.31-7.33-1.93-7.41-1.61-.08.47 8.18.47 8.18s-1.82-5.03-3.17-4.61c-1.35.42 3.37 6.84 3.37 6.84M21.61 968.36s6.26-5.34 6.26-7.02c0-1.68-4.43 1.67-6.26 5.04 0 0 3.82-9.98 3.13-11.25-.69-1.27-3.13 2.9-4.2 10.66 0 0-4.42-5.85-5.8-5-1.37.86 5.04 6.47 5.04 6.47s-4.35-3.1-5.23-2c-.88 1.12 6.66 3.72 6.66 3.72"/> <g> <path class="st7" d="M355.37 1025.54s3.4 60.14-1.3 112.3c0 0 1.9 2.3 6.02.93 0 0 2.28-49.66-3.58-113.23h-1.14z"/> <path class="st5" d="M362.62 1038.8l-5.3-1.1 5.2 2.23a22.57 22.57 0 0 1-2.26 7.06l-4.89-3.17 4.34 4.25c-2.53 4.68-5.79 8-5.79 8s-1.92-2.36-3.55-6.06l3.19-3.13-3.55 2.3a25.5 25.5 0 0 1-1.8-6.96l3.41-1.46-3.47.72a20.3 20.3 0 0 1 .73-7.03l3.8-.73-3.56-.04c2.26-6.63 7.4-8.14 7.4-8.14s4.82.86 6.03 10.7c.1.85.12 1.71.07 2.57z"/> <path class="st8" d="M352.72 1025.54s-18.45 7.76-25 25c0 0 4.48-2.24 6.55-4.13l-.52-2.94 1.38 2.25s2.07-1.73 3.45-3.1v-3.63l1.64 2.93 16.3-16.38h-3.8z"/> <path class="st5" d="M356.51 1025.54s-7.76-2.07-16.55 1.55c-8.8 3.63-11.2 13.71-11.2 13.71s4.3-1.64 6.72-3.02l-.35-3.62 1.38 3.1s3.1-1.37 5.35-3.1l-1.04-3.44 1.81 3.1s3.86-2.34 5.46-3.62c5.83-4.66 8.42-4.66 8.42-4.66z"/> <path class="st6" d="M356.51 1025.54s-.97-.56-5.69-3.1c-3.95-2.13-6.9-3.45-6.9-3.45l-1.29-3.97-1.3 3.28s-5.68-2.07-8.79-6.2c0 0 7.42-2.77 13.63 0 6.2 2.75 9.82 7.06 10.34 13.44z"/> <path class="st8" d="M360.25 1026.2s16.81 10.86 20.26 28.98c0 0-4.02-2.99-5.73-5.22l1.02-2.8-1.75 1.97s-1.74-2.06-2.86-3.65l.64-3.57-2.13 2.6-13.19-18.97 3.74.66z"/> <path class="st5" d="M356.7 1025.52s7.1-3.78 16.48-2.26c9.39 1.52 14.04 10.79 14.04 10.79s-4.57-.62-7.24-1.4l-.49-3.61-.63 3.33s-3.34-.63-5.92-1.8l.23-3.6-1.06 3.44s-4.29-1.4-6.14-2.27c-6.74-3.2-9.26-2.62-9.26-2.62z"/> <path class="st5" d="M356.51 1025.54s.97-.56 5.7-3.1c3.94-2.13 6.89-3.45 6.89-3.45l1.3-3.97 1.28 3.28s5.7-2.07 8.8-6.2c0 0-7.42-2.77-13.62 0-6.21 2.75-9.83 7.06-10.35 13.44z"/> <path class="st6" d="M357.55 1024.96l-1.04.58s-1-9.33-2.44-14.67c-.16-.6-.35-1.17-.55-1.7l3.2-2.42-3.86.8a20.06 20.06 0 0 0-2.34-3.85l3.55-2.64-4.63 1.38s-1.66-5-1.35-10.86c0 0 8.08 1.37 11 10.34 2.94 8.97-1.54 23.04-1.54 23.04z"/> <path class="st6" d="M357.55 1024.96s-1.66-.66-3.94 1.57c-2.27 2.23 1.45 8.44 1.45 8.44s5.17-3.08 5.47-5.72c.3-2.65-2.98-4.3-2.98-4.3z"/> <path class="st9" d="M356.17 1026.65c.31 1.99.02 4.32-.79 6.16-.32-1.99-.02-4.32.79-6.16zM352.95 996.09c5.14 4.23 7.39 12.1 5.26 18.4.9-6.62-1-13.25-5.26-18.4z"/> <path class="st9" d="M354.6 1010.32a2.66 2.66 0 0 1 2.22-1.62 2.66 2.66 0 0 1-2.22 1.62zM353.15 1004.69a2.09 2.09 0 0 1 2.22-.94 2.09 2.09 0 0 1-2.22.94zM350.83 1000.22c.5-.82 1.16-.98 1.98-.48-.58.5-1.23.66-1.98.48zM337.46 1012.27c6.07-1.89 13.22 1.57 15.49 7.52a16.31 16.31 0 0 0-15.5-7.52zM341.02 1014.17c.2.95-.1 1.72-.86 2.31-.2-.95.09-1.72.86-2.3z"/> <path class="st9" d="M345.03 1014.69c.57.85.63 1.73.17 2.65a2.48 2.48 0 0 1-.17-2.65zM347.67 1016.22c.54.99.56 1.98.08 3a3.1 3.1 0 0 1-.08-3zM360.79 1017.36a16.04 16.04 0 0 1 15.34-4.63 25.2 25.2 0 0 0-15.34 4.63zM365.13 1016.14a4 4 0 0 1 .08 3.42 4 4 0 0 1-.08-3.42zM367.36 1015.8c.48 1 .45 2-.09 2.99a3.1 3.1 0 0 1 .09-3zM371.79 1014.43c.49.64.8 1.35.93 2.14-1.07-.38-1.38-1.1-.93-2.14zM373.84 1014.51c.67.08.93.45.77 1.12-.68-.08-.94-.45-.77-1.12zM332.64 1035.03c3.25-5.72 10.49-9.28 17-8.36-6.6.35-12.69 3.34-17 8.36z"/> <path class="st9" d="M336.9 1032.55a2.67 2.67 0 0 1 1.03 2.57 2.67 2.67 0 0 1-1.02-2.57zM338.88 1031.78c.64.47.92 1.1.85 1.88-.86-.36-1.14-1-.85-1.88zM342.21 1029.64c.78.44 1.1 1.1.94 1.97a1.74 1.74 0 0 1-.94-1.97zM344.6 1029.05c.7.26.92.75.69 1.45-.7-.27-.92-.75-.69-1.45zM355.07 1036.41c-.05 5.42-.22 10.9-.52 16.31-.95-5.27-.76-11.1.52-16.3zM364.03 1031.24a35.03 35.03 0 0 1 11.83 15.09 108.44 108.44 0 0 0-11.83-15.09zM363.59 1024.97a19.85 19.85 0 0 1 16.55 3.12 35.46 35.46 0 0 0-16.55-3.12zM370.85 1026.57a2.2 2.2 0 0 1-.09 2.48 2.2 2.2 0 0 1 .09-2.48zM375.22 1027.68a2.2 2.2 0 0 1-.08 2.48 2.2 2.2 0 0 1 .08-2.48zM376.83 1028.53c.54.52.57 1.06.08 1.63-.54-.52-.56-1.06-.08-1.63zM381.79 1029.81c.61.54.73 1.17.34 1.88-.62-.53-.73-1.16-.34-1.88zM383.58 1031.1c.59.29.67.69.26 1.2-.59-.3-.67-.7-.26-1.2z"/> <path class="st9" d="M368.78 1042.37c.2-1.3.82-2.32 1.89-3.07a4.42 4.42 0 0 1-1.89 3.07zM368.37 1040.07c-.14-1.04.32-1.64 1.36-1.8a3.07 3.07 0 0 1-1.36 1.8zM349.05 1037.76a5.36 5.36 0 0 1 4.79-.68c-1.46.55-3.24.8-4.79.68zM350.16 1044.77a4.7 4.7 0 0 1 3.5-2.65 8.85 8.85 0 0 1-3.5 2.65zM355.97 1041.1c1.35-.18 2.9.7 3.43 1.95a12.1 12.1 0 0 1-3.43-1.95zM357 1038.9c1.19-.18 2.03.28 2.52 1.38a4.81 4.81 0 0 1-2.53-1.39zM357.52 1035.6c1.01-.2 1.87.09 2.56.86a2.57 2.57 0 0 1-2.56-.85zM334.88 1039.98c.6 1.04.86 2.16.78 3.36a3.2 3.2 0 0 1-.78-3.36zM336.38 1038.88c.71.63.94 1.4.67 2.31a2.08 2.08 0 0 1-.67-2.3zM340.84 1036.48c.7.34.93.88.69 1.63-.7-.35-.93-.89-.69-1.63zM343.32 1035.8c.64.15.81.52.52 1.1-.64-.15-.81-.52-.52-1.1z"/> </g> <g> <path class="st7" d="M414.87 1081.49s5.85 29.56 1.14 81.73c0 0 1.8 1.14 5.92-.24 0 0 2.61-42.03-5.92-81.5h-1.14z"/> <path class="st5" d="M422.12 1094.75l-5.3-1.11 5.2 2.23a22.57 22.57 0 0 1-2.25 7.07l-4.9-3.18 4.34 4.25c-2.53 4.68-5.78 8-5.78 8s-1.93-2.36-3.56-6.05l3.2-3.13-3.55 2.3a25.5 25.5 0 0 1-1.8-6.97l3.4-1.46-3.47.73a20.3 20.3 0 0 1 .73-7.03l3.8-.73-3.56-.05c2.26-6.63 7.4-8.13 7.4-8.13s4.82.86 6.03 10.69c.1.85.12 1.71.07 2.57z"/> <path class="st8" d="M412.22 1081.49s-18.45 7.76-25 25c0 0 4.48-2.24 6.55-4.14l-.52-2.93 1.38 2.24s2.07-1.72 3.45-3.1v-3.62l1.64 2.93 16.3-16.38h-3.8z"/> <path class="st5" d="M416.01 1081.49s-7.76-2.07-16.55 1.55c-8.8 3.62-11.2 13.7-11.2 13.7s4.3-1.63 6.72-3.01l-.35-3.62 1.38 3.1s3.1-1.38 5.35-3.1l-1.04-3.45 1.81 3.1s3.86-2.34 5.47-3.62c5.83-4.65 8.41-4.65 8.41-4.65z"/> <path class="st6" d="M416.01 1081.49s-.96-.57-5.69-3.1c-3.95-2.13-6.9-3.46-6.9-3.46l-1.29-3.96-1.29 3.27s-5.69-2.06-8.8-6.2c0 0 7.42-2.76 13.63 0 6.2 2.76 9.83 7.07 10.34 13.45z"/> <path class="st8" d="M419.75 1082.15s16.81 10.85 20.26 28.97c0 0-4.02-2.99-5.73-5.21l1.02-2.8-1.75 1.97s-1.74-2.06-2.85-3.66l.63-3.57-2.13 2.6-13.19-18.96 3.74.66z"/> <path class="st5" d="M416.21 1081.47s7.08-3.79 16.47-2.27c9.39 1.52 14.04 10.79 14.04 10.79s-4.57-.61-7.24-1.4l-.49-3.6-.63 3.33s-3.34-.64-5.91-1.8l.22-3.6-1.06 3.44s-4.28-1.4-6.14-2.28c-6.74-3.2-9.26-2.61-9.26-2.61z"/> <path class="st5" d="M416.01 1081.49s.97-.57 5.7-3.1c3.94-2.13 6.89-3.46 6.89-3.46l1.3-3.96 1.29 3.27s5.69-2.06 8.79-6.2c0 0-7.41-2.76-13.62 0s-9.83 7.07-10.35 13.45z"/> <path class="st6" d="M417.05 1080.9l-1.04.59s-.99-9.34-2.44-14.68c-.16-.6-.34-1.17-.54-1.7l3.18-2.42-3.85.8a20.06 20.06 0 0 0-2.33-3.85l3.54-2.64-4.63 1.38s-1.66-5-1.35-10.86c0 0 8.08 1.38 11 10.34 2.94 8.97-1.54 23.04-1.54 23.04z"/> <path class="st6" d="M417.05 1080.9s-1.66-.66-3.93 1.57c-2.28 2.23 1.44 8.44 1.44 8.44s5.17-3.07 5.47-5.72c.3-2.65-2.98-4.29-2.98-4.29z"/> <path class="st9" d="M415.2 1053.87a19.37 19.37 0 0 1 2.8 16.11 35.8 35.8 0 0 0-2.8-16.1zM409.4 1055.46a5.65 5.65 0 0 1 4.01-1.28 5.65 5.65 0 0 1-4.01 1.28zM412.73 1060.33a2.46 2.46 0 0 1 2.4-1.11 2.46 2.46 0 0 1-2.4 1.1zM405.05 1070.67c.62 1.15.74 2.34.34 3.59a4.42 4.42 0 0 1-.34-3.6zM407.68 1072.04c.52 1 .52 2 0 2.99-.5-1-.5-2 0-3zM399.32 1069.73c.5.73.47 1.44-.06 2.14-.5-.73-.47-1.44.06-2.14zM426.94 1071.19c.37 1.18.43 2.38.18 3.6a3.3 3.3 0 0 1-.18-3.6zM431.61 1069.65a2.82 2.82 0 0 1 1.3 2.98 5.38 5.38 0 0 1-1.3-2.98zM424.19 1073.4c.42.77.5 1.57.24 2.4-.76-.73-.84-1.53-.24-2.4zM419.98 1075.62a11.65 11.65 0 0 1 10.01-6.58 22.18 22.18 0 0 0-10 6.58zM409.55 1072.14a10.24 10.24 0 0 1 4.82 6.13 89.1 89.1 0 0 1-4.82-6.13zM393.21 1089.1a23 23 0 0 1 14.56-6.35 61.08 61.08 0 0 0-14.56 6.35zM400.28 1092.4c.76.83 1.02 1.8.8 2.9a3.13 3.13 0 0 1-.8-2.9zM402.57 1090.4c.8.5 1.15 1.2 1.03 2.14a2.02 2.02 0 0 1-1.03-2.13zM414.5 1091.87c-.04 5.71-.36 11.59-.96 17.26a51.96 51.96 0 0 1 .95-17.26zM415.73 1097.15a6.22 6.22 0 0 1 3.5 2.74 6.22 6.22 0 0 1-3.5-2.74zM417.17 1095.63a2.4 2.4 0 0 1 2.58 1.61 5.2 5.2 0 0 1-2.58-1.6zM408.8 1095.1a5.17 5.17 0 0 1 3.67-1.36 5.16 5.16 0 0 1-3.68 1.37zM409.65 1091.95c.53-.66 1.18-.83 1.97-.51-.53.67-1.18.84-1.97.51zM409.3 1100.75a3.34 3.34 0 0 1 2.48-1.88 3.34 3.34 0 0 1-2.48 1.88zM416.83 1091.28a4.94 4.94 0 0 1 3.76-.68 4.94 4.94 0 0 1-3.76.68zM423.04 1086.6a29.67 29.67 0 0 1 10.4 14.01 94.18 94.18 0 0 0-10.4-14.02zM423.94 1080.76a13.65 13.65 0 0 1 9.68.16 477.4 477.4 0 0 0-9.68-.16zM434.62 1082.55c.54 1.1.57 2.21.08 3.33a3.8 3.8 0 0 1-.08-3.33zM436.92 1084.09c.5.68.5 1.37 0 2.05-.52-.68-.52-1.37 0-2.05zM416.23 1082.8a10.3 10.3 0 0 1-1.1 5.73 10.3 10.3 0 0 1 1.1-5.72z"/> </g> </g> <g> <linearGradient id="SVGID_6_" gradientUnits="userSpaceOnUse" y1="1104.73" x2="658.37" y2="1104.73"> <stop offset=".36" stop-color="#fbc567"/> <stop offset="1" stop-color="#efc483"/> </linearGradient> <path d="M202.08 1102.37a85.04 85.04 0 0 0 33.76 9.69l165.4 11.87a85.04 85.04 0 0 1 20.62 3.25l101.64 29.16a85.04 85.04 0 0 0 24.73 3.29l43.88-.66a85.04 85.04 0 0 1 52.13 16.87l14.13 10.54H0v-163.29l101.7 28.28a85.04 85.04 0 0 1 17.06 6.8l83.32 44.2z" fill="url(#SVGID_6_)"/> <path class="st11" d="M700.04 1186.38H0v-138.55l96.38 76.39a85.04 85.04 0 0 0 40.9 17.55l108.13 15.31c7.1 1.01 14.29 1.11 21.4.32l96.94-10.88a85.04 85.04 0 0 1 34.9 3.36l58.62 18.36a85.04 85.04 0 0 0 28.59 3.83l113.1-4.23c6.9-.25 13.79.33 20.54 1.74l80.54 16.8z"/> <path class="st5" d="M53.7 1138.8c2.57 5.6 9.75 3.87 14.71 5.03 6.08 1.4 1.12 7.74-2.94 5.51-3.61-1.98-5.84-4.65-10.29-4.35-3.46.23-7.97 1.65-9.65 4.98-3.54 7.05-1.07 19.43 8.42 19.03 3.7-.16 7.33-1.74 10.56-3.44 2.18-1.14 7.33-3.36 8.53-5.64-4 7.59-4.57 17.69-.42 25.37 5.52 10.25 17 4.17 23.7-1.43-1.2 1-5.93-4.57-6.62-5.46a17.24 17.24 0 0 1-3.64-9.9c-.1-2.96.71-9.77 5.2-8.34 4.21 1.33 3.4 10.77 4.05 13.96 2.26 11.06 11.8 7.63 18.15 1.97 7.45-6.66 13.29-25.92 13.29-25.92s-9.1 3.25-12.34 3.4c-4.15.19-8.33-.43-11.85-2.79-2.87-1.92-5.62-5.32-2.13-8.16 2.46-2.01 5.15-.7 7.15 1.16 4.5 4.18 9.58 7.31 15.87 4.47 3.67-1.65 5.8-5.03 7.72-8.39 2.43-4.25 6.84-7.8 6.84-7.8s-7.89.05-12.5-1.24c-4.62-1.28-3.9-5.37.95-4.82 4.64.52 7.14 3.92 12 1.08 4.46-2.62 5.92-7.79 8.8-11.76 2.5-3.45 7.47-7.35 8.85-8.49.16-.12.15-.22 0-.32-1.07-.67-9.25-.6-13.46-1.92a20.7 20.7 0 0 1-.75-.27 4.2 4.2 0 0 1-.45-.2c-3.66-1.87-5.6-5.1-10.2-3.75-5.06 1.48-7.32 6-10.26 9.88-1.42 1.88-7.5 7.8-7.46 2.05.03-3.58 3.54-6.69 6.12-8.7 1.95-1.5 2.38-3 2.38-3s-4.17-.98-9.6-.67c-10 .59-19.81 7.59-17.07 18.84.94 3.84 3.6 6.5.7 10.16-3.28 4.13-7.83 2.63-9.22-2.08-2.6-8.78 5.35-18.88 9.58-25.9-8.09 2.7-16 5.77-23.73 9.38-9.7 4.53-25 15.44-19 28.46zm62.59-1.08c1.78-.07 7.35.23 7.9 2.74.56 2.53-3.77 3.34-5.67 3.76-2.5.55-7.14 1.36-7.25-2.48-.07-2.63 2.78-3.92 5.02-4.02zm-52.5-8.04c-.28 2.83-2.21 8.6-6.26 7.5-4.94-1.35-.04-11.87 2.09-14.25 3.79-4.23 4.36 4.68 4.16 6.75z"/> <path class="st9" d="M77.26 1153.21c-.85.59-1.83 1.07-2.73 1.59 14.8-18.96 36.15-33.37 59.48-39.4a146.83 146.83 0 0 0-33.42 16.83c-9.47 6.45-17.3 15.05-25.67 22.09l2.34-1.1zM80.13 1111.8a54.37 54.37 0 0 0-.56 35.78c-5.84-10.74-5.6-25.22.56-35.78zM108.63 1104.01a72.86 72.86 0 0 0-2.1 20.84 25.61 25.61 0 0 1 2.1-20.84zM127.6 1115.16c-.76-3.98 1.56-8.65 5.19-10.44a44.97 44.97 0 0 0-5.19 10.44zM128.72 1119.87c3.08.08 6.4.56 9.4 1.36-2.96 1.18-6.91.6-9.4-1.36z"/> <path class="st9" d="M108.81 1129.7c4.37 1.63 8.7 3.03 13.2 4.3-4.53.79-9.98-.97-13.2-4.3zM73.91 1155.2a85.87 85.87 0 0 0 33.32 3.6 45.64 45.64 0 0 1-33.32-3.6z"/> <g> <path class="st5" d="M116.15 1180.97c-2.15-2.06-4.1-4.35-3.8-7.52.3-3.08 1.97-5.9 3.64-8.42a76.57 76.57 0 0 0 14.99 23.14c.97-1.19.63-2.93.26-4.28a28.68 28.68 0 0 0-1.9-4.77c-1.4-2.9-3.17-5.69-4.3-8.71-.49-1.34-.54-2.84-.67-4.24-.16-1.7-.23-3.42-.04-5.13.3-2.66 1.17-5.18 2.6-7.44 1.88-3 4.51-5.47 7.3-7.62-2.58 9.92-4.81 20.6-2.6 30.82.55 2.58 1.4 5.1 2.64 7.43 1.24-.86 1.12-3.2 1.15-4.51.04-1.97-.12-3.94-.25-5.9-.23-3.5-.73-7.17-.44-10.68.15-1.77.57-3.6.96-5.33.42-1.88.9-3.76 1.53-5.58a27.74 27.74 0 0 1 6-9.99c3.08-3.24 7.13-5.52 11.33-6.97-8.1 9.96-14 21.95-15.85 34.72-.48 3.33-.69 6.7-.58 10.07 6.62-6.82 6.53-16.59 9.75-25 .81-2.12 1.9-4.11 3.05-6.08 1.21-2.08 2.49-4.1 3.96-6.02 2.45-3.2 5.4-6.01 8.85-8.1a28.75 28.75 0 0 1 12.82-4.01c-11.75 8.35-21.83 19.3-27.87 32.49a64.33 64.33 0 0 0-3.72 10.29c3.55-3.07 5.87-6.93 7.84-11.14 1.97-4.24 3.56-8.52 6.29-12.35 4.98-7 11.06-13.68 19.1-17.08a27.72 27.72 0 0 1 12.94-2.16 146.97 146.97 0 0 0-16.55 10.75c-4.93 3.83-9.6 7.93-13.6 12.75a47.72 47.72 0 0 0-7.86 12.83c6.9-4.86 11.94-11.78 17.29-18.2 5.65-6.81 12.37-13.34 21.12-15.79a26.8 26.8 0 0 1 13.14-.32c-11.78 3.55-22.15 10.42-31.06 18.8a140.17 140.17 0 0 0-7.43 7.56 91.24 91.24 0 0 0 9.6-5.49c3.08-2.07 5.93-4.45 8.87-6.7a87.48 87.48 0 0 1 10.23-6.77c3.48-1.96 7.29-3.64 11.26-4.31 4.54-.77 9.1-.2 13.37 1.48a120.52 120.52 0 0 0-31.4 11.28c-2.7 1.43-5.34 2.96-7.91 4.6 3.32-1.06 6.69-1.95 10.02-2.99 3.37-1.05 6.47-2.72 9.51-4.48 6.15-3.53 13.04-5.98 20.21-5.86 3.61.07 7.28.81 10.44 2.6-9.14.42-18.4 1.24-27.2 3.98-2.37.74-4.7 1.62-6.95 2.68 12.3-2.38 25.12-5.48 37.58-2.36a26.1 26.1 0 0 1 10.23 5.1c-2.85.97-6 1.04-8.98.84a93.8 93.8 0 0 1-8.9-1.03c-5.26-.86-10.6-1.69-15.92-1.99-3.57-.2-7.14-.27-10.7.29 6.36.42 12.7.93 18.97 2.07 3.82.7 7.6 1.62 11.25 2.9-5.94 1.8-12.13.78-18.04-.6-3.25-.75-6.48-1.66-9.79-2.14-3.24-.46-6.56-.6-9.81-.2a53.91 53.91 0 0 0-10.66 2.53 98.17 98.17 0 0 1 38.8 3.66c-6.42 2.58-13.11 2.26-19.83 1.22-7.26-1.13-14.58-2.65-21.97-1.93-3.8.37-7.57 1.3-10.96 3.06 11.27-1.58 22.8-1.6 34.05.23 3.03.49 6.04 1.12 9.02 1.88a26.65 26.65 0 0 1-10.6 2.89c-3.9.24-7.88-.28-11.72-.88-7.38-1.15-15.1-2.16-22.51-.76a27.66 27.66 0 0 0-10.98 4.5 224.51 224.51 0 0 1 34.87-1.14c3.89.18 7.8.25 11.68.59-2.57 2.23-5.52 4.07-8.87 4.87-3.57.86-7.25.5-10.84-.03-7.43-1.1-14.67-3.1-22.26-2.55-4.63.33-9.3 1.72-12.84 4.85 11.13-1.27 22.38-2.03 33.57-1.1 3.88.31 7.85.66 11.66 1.49-5.2 4.45-12.1 4.64-18.61 4.23-3.15-.2-6.31-.3-9.46-.55-3.87-.31-7.7-.96-11.58-1.08-4.12-.12-9.16.35-12.25 3.41 11.14.08 22.3.24 33.37 1.72 2.98.4 5.95.9 8.9 1.51a12.46 12.46 0 0 1-7.9 3.83c-3.25.32-6.48-.14-9.67-.71a99.96 99.96 0 0 1-9.15-1.98 60.22 60.22 0 0 0-9.88-2.1c-2.98-.31-7.3-.53-9.5 1.94 4.51 1.97 9.46 2.78 14.3 3.45 4.92.68 9.87 1.26 14.7 2.38 2.65.6 5.26 1.38 7.76 2.44-4.6 4.17-11.06 3.83-16.66 2.3-5.83-1.59-10.94-4.8-16.56-6.9-1.94-.73-5.12-1.8-6.7.16 8.67 5 17.85 9.08 26.75 13.67-8.02 4.84-17.41-.96-23.15-6.66a51.88 51.88 0 0 1-4.78-5.5c-.85 1.18.08 2.97.67 4.04a32.23 32.23 0 0 0 4 5.43c1.6 1.85 3.3 3.63 4.96 5.44 1.01 1.1 2.45 2.35 3 3.79-3.47 1.08-6.84.37-9.28-2.39-3.06-3.44-4.2-8.05-6.46-11.97-1.66 2.53-.5 5.77.62 8.28.67 1.5 1.49 2.94 2.27 4.4.65 1.19 1.4 2.47 1.63 3.83-2.48.2-4.82-.37-6.05-2.7-.64-1.2-.9-2.57-1.15-3.9a80.7 80.7 0 0 1-.66-4.68c-1.07 1.63-1.73 3.57-2.64 5.3-.51.98-7.25 13.78-8.16 15.2-3.88 6.12-7.5 3.15-3.17-2.65 1.8-2.4 10.65-17.22 11.9-19.12-2.34.99-4.35 2.54-6.53 3.84-1.3.78-2.86 1.6-4.39.99-.79-.33-1.4-.97-1.9-1.65-.17-.23-.4-.45-.31-.69.08-.22.46-.46.64-.62.46-.4.95-.73 1.48-1.03 2.24-1.22 4.78-1.82 7.23-2.44 2.55-.66 5.72-1.45 7.27-3.79-3.53-.61-7.19.1-10.73.25-2.45.1-5.7.18-7.5-1.81a5.73 5.73 0 0 1-1.28-3.76c-.01-.37-.12-1.11.05-1.45.1-.2.2-.2.47-.23a8.3 8.3 0 0 1 1.55 0c3.41.2 6.8 1.03 10.15 1.71 2 .41 4 .86 6.03 1.17.93.15 1.88.29 2.83.26.51-.01 1.26-.04 1.6-.5a40.37 40.37 0 0 1-13.65-8.7z"/> </g> <path d="M0 1206.23v-79.6c11.08 0 19.23 6.08 19.17 20.5 1.44-12.61 18.72-15.19 24.34-4.93 7.28-4.5 23.44 4.66 20.81 15.62 7.85-10.24 27.31-1.44 24.38 9.4 32.99-9.16 54.5 12.2 53.57 39.01H0z" fill="#a4b21c"/> </g> <g> <path class="st7" d="M1903.6 945.12s60.77 63.53 98.65 160.66c27.7 71 73.85 166.46 106.43 232.84 0 0 10.49-2.44 20.55-14.35 0 0-58.5-96.9-118.41-233.25-21.77-49.52-50.8-100-101.64-151.75l-5.58 5.85z"/> <path class="st5" d="M1940.83 983.09l-19.41 1.19 20.12 2.8c1.25 8.9.56 18.04-1.1 26.58l-19.94-6.34 19.05 10.58c-4.32 18.61-12.44 33.16-12.44 33.16s-8.9-6.32-18.06-17.56l8.08-13.86-10.08 11.33a91.49 91.49 0 0 1-12.84-22.4l10.4-8.29-11.34 5.8a72.85 72.85 0 0 1-3.36-13.47 67.88 67.88 0 0 1-.78-11.54l12.46-6.13-12.36 3.23c1.54-25.1 17.87-35.18 17.87-35.18s17.52-1.6 31.02 31.27a52.34 52.34 0 0 1 2.7 8.83z"/> <path class="st8" d="M1893.8 945.9s-58.72 41.34-68.47 106.8c0 0 14-11.29 19.8-19.52l-4.07-9.88 6.56 6.8s5.93-7.63 9.7-13.52l-2.77-12.7 7.99 9.02 44.56-69.9-13.3 2.9z"/> <path class="st5" d="M1907.1 943s-28.79-1.31-56.84 18.12c-28.05 19.44-28.77 56.64-28.77 56.64s13.85-9.04 21.25-15.73l-3.98-12.43 7.21 9.83s9.83-7.22 16.36-14.98l-6.27-11.3 8.73 9.5s11.72-11.16 16.37-16.88c16.87-20.8 25.94-22.78 25.94-22.78z"/> <path class="st6" d="M1907.1 943s-4.02.07-23.23 1.08c-16.08.85-27.58 2.28-27.58 2.28l-11.36-9.75 2.15 12.46s-21.3 4.26-38.54-2.65c0 0 17.6-22.28 41.77-25.38 24.17-3.11 43.31 3.36 56.79 21.95z"/> <path class="st8" d="M1919.78 938.06s71.8 1.95 116.13 51.08c0 0-17.9-1.66-27.3-5.31l-2.08-10.48-1.7 9.3s-9.15-3.08-15.56-5.9l-4.71-12.11-3.08 22.05c-28.35-8.44-52.38-24.33-74.38-43.7l12.68-4.93z"/> <path class="st5" d="M1907.67 942.57s14.66-24.8 46.27-37.65c31.62-12.84 63.16 6.92 63.16 6.92s-15.15 6.64-24.8 9.18l-8.22-10.14 4.27 11.42s-11.42 4.27-21.49 5.49l-6.02-11.43 3.17 12.5s-15.75 3.7-23.09 4.46c-26.63 2.75-33.25 9.25-33.25 9.25z"/> <path class="st5" d="M1907.1 943s1.91-3.54 11.66-20.13c8.15-13.88 14.72-23.43 14.72-23.43l-3.43-14.57 10.08 7.64s13.59-16.95 15.39-35.42c0 0-27.88 5.36-41.77 25.38-13.89 20.03-16.96 40-6.65 60.52z"/> <path class="st6" d="M1909.18 939.27l-2.08 3.72s-20.44-26.76-34.84-40.45a65.51 65.51 0 0 0-4.85-4.2l5.27-13.35-10.3 9.65a71.99 71.99 0 0 0-14.35-7.46l5.95-14.71-11.62 12.85s-14.41-12.23-24.39-30.79c0 0 27.34-10.82 53.03 11.21 25.7 22.03 38.18 73.53 38.18 73.53z"/> <path class="st6" d="M1909.18 939.27s-6.3 1.06-9.13 12.14c-2.82 11.1 20.17 23.18 20.17 23.18s10.11-19.05 6.1-27.72c-4.01-8.68-17.14-7.6-17.14-7.6z"/> <path class="st373" d="M1843.06 859.81c29.35 2.5 47.73 37.1 55.46 63.62-9.14-21.43-26.14-58.9-55.46-63.62zM1816.53 944.06c16.34-23.77 46.42-23.15 66.24-17.28-17.48-2.29-48.57-5.42-66.24 17.28z"/> <path class="st9" d="M1856.15 964.33a25.5 25.5 0 0 1 13.52 10.8c-4.58-3.45-9.14-7.1-13.52-10.8zM1862.42 958.89c4.43.26 9.17 2.75 11.89 6.27a93.3 93.3 0 0 1-11.9-6.27zM1845.35 1006.6c1.88 3.62 3.62 7.5 5.06 11.32a14.14 14.14 0 0 1-5.06-11.31zM1857.46 991.9c2.58 3.27 5.08 6.78 7.32 10.3a14.45 14.45 0 0 1-7.32-10.3zM1909.79 976.05a661.47 661.47 0 0 1 17.75 66.72 661.43 661.43 0 0 1-17.75-66.72zM1896.48 992.53a19.96 19.96 0 0 1 7.62-8.19 19.96 19.96 0 0 1-7.62 8.2zM1904.83 1014.03a17.41 17.41 0 0 1 6.66-7.99 17.41 17.41 0 0 1-6.66 8zM1917.75 994.22a38.71 38.71 0 0 1 15.55 3.21 38.72 38.72 0 0 1-15.55-3.21zM1945.81 950.92a19.63 19.63 0 0 1 3.12 13.74 77.18 77.18 0 0 1-3.12-13.74zM1961.16 950.42a43.6 43.6 0 0 1 2.21 22.92c-.89-7.6-1.62-15.29-2.2-22.92zM1993.62 963.98a30.86 30.86 0 0 1 3.6 13.64 30.86 30.86 0 0 1-3.6-13.64zM1942.64 912.77a24.4 24.4 0 0 1 8.78 16.95 141.63 141.63 0 0 0-8.78-16.95zM1963.64 906.51a23.6 23.6 0 0 1 7.21 14.31c-2.64-4.58-5.1-9.46-7.21-14.3zM1971.54 906.22a17.33 17.33 0 0 1 7.17 11.82c-2.58-3.76-5.02-7.8-7.17-11.82zM1913.34 889.58a51.02 51.02 0 0 1 10.4 15.08 51 51 0 0 1-10.4-15.08zM1927.58 876.67a22.79 22.79 0 0 1 13.26 8.64c-4.53-2.6-9.04-5.55-13.26-8.64zM1934.33 871.81c3.7.82 7.59 2.96 10.25 5.65a21.71 21.71 0 0 1-10.25-5.65zM1853.58 928.48a50.7 50.7 0 0 1 11.3 14.35 50.7 50.7 0 0 1-11.3-14.35zM1864.06 926.63a31.93 31.93 0 0 1 8.59 11.5 31.94 31.94 0 0 1-8.59-11.5zM1836.99 934.27c1.7 3.2 2.52 7.38 2.13 10.98a19.95 19.95 0 0 1-2.13-10.98zM1839.24 876.46c.17-4.9 4.19-9.85 8.94-11.02a38.55 38.55 0 0 0-8.94 11.02zM1834.57 869.06a9.7 9.7 0 0 1 7-8.6 102.1 102.1 0 0 0-7 8.6zM1856.83 885.92c.56-4.57 4.66-9.08 9.16-10.07a52.42 52.42 0 0 0-9.16 10.07zM1873.63 898.54a4.94 4.94 0 0 1 2.46-4.54 4.94 4.94 0 0 1-2.46 4.54zM1908.83 943.87c2.6 6.42 4.84 13.23 6.52 19.94a42.9 42.9 0 0 1-6.52-19.94z"/> </g> <g> <path class="st7" d="M853.61 971.6s-64.92 59.28-109.29 153.62c-32.44 68.98-93.77 180.23-130.76 244.25 0 0-18.21 1.48-27.45-11.08 0 0 81.66-116.48 150.66-248.47 25.06-47.93 57.45-96.33 111.68-144.53l5.16 6.21z"/> <path class="st5" d="M813.9 1006.97l19.28 2.5-20.25 1.43c-1.86 8.79-1.78 17.96-.7 26.6l20.31-4.98-19.71 9.27c3.04 18.86 10.16 33.92 10.16 33.92s9.3-5.7 19.2-16.3l-7.12-14.37 9.3 11.99a91.5 91.5 0 0 0 14.32-21.48l-9.82-8.98 10.92 6.56a72.84 72.84 0 0 0 4.27-13.21c.9-4.1 1.39-7.9 1.56-11.46l-12.02-6.97 12.11 4.06c.17-25.15-15.44-36.3-15.44-36.3s-17.38-2.78-33.07 29.1a52.34 52.34 0 0 0-3.3 8.62z"/> <path class="st8" d="M863.34 973.05s55.79 45.22 61.09 111.2c0 0-13.2-12.22-18.43-20.83l4.72-9.58-7 6.34s-5.4-8.02-8.77-14.15l3.63-12.48-8.58 8.46-39.73-72.76 13.07 3.8z"/> <path class="st5" d="M850.27 969.25s28.8.64 55.47 21.93c26.67 21.29 24.88 58.46 24.88 58.46s-13.2-9.96-20.14-17.14l4.82-12.13-7.87 9.32s-9.3-7.87-15.3-16.05l7.02-10.85-9.35 8.88s-10.94-11.92-15.2-17.95c-15.42-21.88-24.33-24.47-24.33-24.47z"/> <path class="st6" d="M850.27 969.25s4 .34 23.1 2.65a430.66 430.66 0 0 1 27.36 4.14l11.99-8.96-2.98 12.29s20.97 5.69 38.62-.04c0 0-16.04-23.41-39.95-28.15-23.91-4.74-43.44.42-58.14 18.07z"/> <path class="st8" d="M837.95 963.47s-71.76-2.92-119.32 43.1c0 0 17.97-.44 27.59-3.45l2.78-10.3 1.07 9.37s9.35-2.44 15.93-4.82l5.52-11.76 1.58 22.2c28.85-6.5 53.9-20.73 77.17-38.56l-12.32-5.78z"/> <path class="st5" d="M849.73 968.79s-12.95-25.74-43.63-40.7c-30.67-14.94-63.48 2.63-63.48 2.63s14.67 7.66 24.13 10.84l8.89-9.56-5.04 11.1s11.1 5.04 21.07 6.94l6.78-11-4 12.26s15.45 4.76 22.72 6.01c26.4 4.54 32.56 11.48 32.56 11.48z"/> <path class="st5" d="M850.27 969.25s-1.68-3.66-10.28-20.87c-7.2-14.4-13.1-24.37-13.1-24.37l4.4-14.3-10.56 6.94s-12.41-17.83-12.96-36.39c0 0 27.44 7.24 39.95 28.16 12.5 20.92 14.22 41.05 2.55 60.83z"/> <path class="st6" d="M848.45 965.39l1.82 3.86s22.2-25.32 37.5-38c1.7-1.44 3.41-2.71 5.11-3.88l-4.36-13.66 9.63 10.32a71.99 71.99 0 0 1 14.82-6.48l-4.94-15.07 10.73 13.6s15.2-11.22 26.41-29.06c0 0-26.54-12.65-53.67 7.6-27.13 20.24-43.05 70.77-43.05 70.77z"/> <path class="st6" d="M848.45 965.39s6.21 1.48 8.27 12.74-21.69 21.76-21.69 21.76-8.8-19.7-4.2-28.08c4.59-8.38 17.62-6.42 17.62-6.42z"/> <path class="st373" d="M919.78 890.59c-29.44.5-50.13 33.78-59.63 59.72 10.56-20.76 30.06-56.99 59.63-59.72zM940.55 976.43c-14.7-24.82-44.74-26.23-64.91-21.7 17.59-1.11 48.82-2.14 64.91 21.7z"/> <path class="st9" d="M899.65 993.98a25.5 25.5 0 0 0-14.22 9.87c4.81-3.14 9.6-6.47 14.22-9.87zM893.77 988.13a17.03 17.03 0 0 0-12.29 5.45 93.3 93.3 0 0 0 12.29-5.45zM907.57 1036.9a104.18 104.18 0 0 0-5.81 10.93 14.14 14.14 0 0 0 5.81-10.94zM896.49 1021.4c-2.8 3.09-5.54 6.42-8 9.78a14.45 14.45 0 0 0 8-9.78zM845.35 1002.05c-8.51 21.3-16 43.28-22.23 65.36a661.48 661.48 0 0 0 22.23-65.36zM857.51 1019.4a19.96 19.96 0 0 0-7.05-8.7 19.96 19.96 0 0 0 7.05 8.7zM847.72 1040.28a17.42 17.42 0 0 0-6.1-8.42 17.41 17.41 0 0 0 6.1 8.42zM836.18 1019.64c-5.16-.4-10.88.37-15.74 2.15 5.16.4 10.88-.38 15.74-2.15zM811.1 974.54a19.63 19.63 0 0 0-4.03 13.5 77.18 77.18 0 0 0 4.04-13.5zM795.82 973a43.6 43.6 0 0 0-3.75 22.72c1.4-7.52 2.65-15.14 3.75-22.72zM762.53 984.34a30.86 30.86 0 0 0-4.51 13.36 30.86 30.86 0 0 0 4.5-13.36zM816.85 936.69a24.4 24.4 0 0 0-9.91 16.31c2.97-5.7 6.2-11.05 9.9-16.31zM796.32 929.03a23.6 23.6 0 0 0-8.16 13.78c2.94-4.39 5.72-9.1 8.16-13.78zM788.46 928.2a17.33 17.33 0 0 0-7.95 11.31c2.83-3.58 5.53-7.45 7.95-11.31zM847.65 915.53a51.01 51.01 0 0 0-11.39 14.35 51 51 0 0 0 11.39-14.35zM834.31 901.7a22.79 22.79 0 0 0-13.8 7.72c4.69-2.3 9.39-4.94 13.8-7.73zM827.91 896.39a21.71 21.71 0 0 0-10.6 4.94 21.71 21.71 0 0 0 10.6-4.94zM904.64 958.39a50.7 50.7 0 0 0-12.23 13.55 50.7 50.7 0 0 0 12.23-13.55zM894.31 955.83a31.93 31.93 0 0 0-9.35 10.9 31.94 31.94 0 0 0 9.35-10.9zM920.8 965.29a19.95 19.95 0 0 0-2.86 10.8 19.95 19.95 0 0 0 2.87-10.8zM922.47 907.46c.17-4.9-3.51-10.12-8.17-11.6a38.55 38.55 0 0 1 8.17 11.6zM927.63 900.39a9.7 9.7 0 0 0-6.4-9.05c2.32 2.93 4.41 5.88 6.4 9.05zM904.28 915.7c-.25-4.6-4.03-9.37-8.46-10.66a52.42 52.42 0 0 1 8.46 10.67zM886.66 927.16a4.94 4.94 0 0 0-2.14-4.7 4.94 4.94 0 0 0 2.14 4.7zM848.48 970a152.54 152.54 0 0 0-7.86 19.46 42.9 42.9 0 0 0 7.86-19.46z"/> </g> <g> <path class="st7" d="M650.81 1074.28s-51.51 142.23-77.77 271.13c0 0-6.22 4.17-15.14-2.12 0 0 30.28-121.12 90.17-269.83l2.74.82z"/> <path class="st8" d="M657.2 1076.2s38.8 31.95 42.14 78.15c0 0-9.17-8.62-12.78-14.67l3.35-6.68-4.93 4.4s-3.74-5.64-6.06-9.96l2.6-8.7-6.05 5.86-27.4-51.14 9.13 2.73z"/> <path class="st5" d="M648.07 1073.46s20.16.6 38.7 15.65c18.55 15.05 17.1 41.06 17.1 41.06s-9.2-7.05-14-12.1l3.43-8.47-5.55 6.47s-6.48-5.55-10.63-11.31l4.97-7.55-6.59 6.16s-7.59-8.4-10.53-12.65c-10.68-15.4-16.9-17.26-16.9-17.26z"/> <path class="st8" d="M638.6 1072.36s-48.27 14-69.61 55.11c0 0 11.83-4.29 17.54-8.42l-.44-7.46 2.8 6s5.65-3.7 9.5-6.75l1.04-9.03 3.24 7.78 45.4-36.13-9.46-1.1z"/> <path class="st5" d="M647.6 1073.27s-14.3-14.2-37.98-17.32c-23.68-3.1-41.55 15.85-41.55 15.85s11.43 1.82 18.41 1.83l3.78-8.31-.87 8.48s8.48.88 15.52-.08l2.06-8.8.06 9.02s11.32-.27 16.42-1.05c18.53-2.85 24.16.38 24.16.38z"/> <path class="st5" d="M648.07 1073.46s-1.92-2.06-11.45-11.57c-7.98-7.96-14.11-13.26-14.11-13.26l-.26-10.47-5.47 6.95s-12.2-9.08-16.69-21.27c0 0 19.83-1.3 32.78 9.8 12.94 11.12 18.55 24.1 15.2 39.82z"/> <path class="st6" d="M646 1071.3l2.07 2.16s9.11-21.74 16.45-33.55a45.84 45.84 0 0 1 2.53-3.71l-5.92-8.1 8.67 4.71a50.4 50.4 0 0 1 8.4-7.6l-6.62-8.9 10.14 6.65s7.6-10.83 11.08-25.16c0 0-20.43-2.5-33.94 16.96-13.5 19.46-12.86 56.54-12.86 56.54z"/> <path class="st518" d="M650.81 1074.28s-51.51 142.23-77.77 271.13c0 0-6.22 4.17-15.14-2.12 0 0 30.28-121.12 90.17-269.83l2.74.82z"/> <path class="st5" d="M623.81 1100.97l13.56 1.14-14.12 1.64c-1.02 6.2-.68 12.61.34 18.61l14.05-4.1-13.5 7.09c2.72 13.09 8.17 23.4 8.17 23.4s6.32-4.27 12.92-12l-5.43-9.83 6.87 8.1a64.03 64.03 0 0 0 9.35-15.46l-7.15-5.97 7.85 4.24a50.97 50.97 0 0 0 3.3-17.43l-8.62-4.5 8.6 2.46c-.67-17.59-11.93-24.9-11.93-24.9s-12.24-1.4-22.22 21.37a36.64 36.64 0 0 0-2.04 6.14z"/> <path class="st6" d="M648.07 1073.46s2.73-.66 15.92-3.37c11.04-2.27 19.08-3.33 19.08-3.33l5.97-8.6.75 8.8s15.18-.87 25.63-8.6c0 0-15.85-11.97-32.77-9.8-16.92 2.16-28.74 9.92-34.58 24.9z"/> <path class="st6" d="M646 1071.3s4.46-.4 8.33 6.62-9.57 19.26-9.57 19.26-10.21-11.12-9.03-17.7c1.19-6.58 10.27-8.18 10.27-8.18z"/> <path class="st9" d="M674.1 1007.3c-11.4 6.21-19.97 18.71-21.65 31.57a66.96 66.96 0 0 1 21.64-31.56zM698.06 1054.33c-11.83-4.68-26.97-1.67-36.1 7.19a48.85 48.85 0 0 1 36.1-7.2zM696.06 1106.34c-5.76-11.92-17.65-21.56-30.51-24.7a75.45 75.45 0 0 1 30.5 24.7zM642.93 1053.78c-4.65-12.18-16.27-22.23-29-25.05a62.14 62.14 0 0 1 29 25.05zM647.6 1074.98a40.66 40.66 0 0 0-1.9 16.18 40.66 40.66 0 0 0 1.9-16.18zM645.54 1099.7a233.37 233.37 0 0 0-12.57 38.84 233.34 233.34 0 0 0 12.57-38.84zM649.73 1124.28a19.6 19.6 0 0 0-6.43-9.03 19.6 19.6 0 0 0 6.43 9.03zM655.45 1110.27a12.67 12.67 0 0 0-7.08-5.16 12.67 12.67 0 0 0 7.08 5.16zM639.26 1108.42a13.78 13.78 0 0 0-12.4.97c4.1-.14 8.31-.48 12.4-.97zM624.14 1062.35c-9.01-5.65-21.94-6.01-31.26-.82a50.62 50.62 0 0 1 31.26.82zM603.11 1063.15a10.74 10.74 0 0 0-2.23 7.45 10.74 10.74 0 0 0 2.23-7.45zM612.1 1065.34c-1.18 1.12-1.4 2.41-.66 3.86 1.18-1.13 1.4-2.42.65-3.86zM608.34 1098.2a10.06 10.06 0 0 0 .23-7.55 10.07 10.07 0 0 0-.23 7.54z"/> </g> <path class="st27" d="M1266.7 1404.46c-102.23 13.93-279.88 15.35-411.78-82.5C662.86 1179.5 0 1167.83 0 1167.83v287.8h2750.78v-353.14c-532.54 200.19-1223.67 268.84-1484.08 301.98z"/> <path class="st5" d="M2586.53 987.23s-16.02-13.68-16.02-17.98c0-4.29 11.33 4.28 16.02 12.89 0 0-9.77-25.54-8.01-28.78 1.76-3.24 8 7.42 10.74 27.29 0 0 11.33-14.98 14.84-12.8s-12.89 16.56-12.89 16.56 11.15-7.94 13.39-5.1c2.24 2.84-17.05 9.48-17.05 9.48M2443.17 1065.5s-20.69-3.96-22.81-7.69c-2.13-3.72 11.96-1.9 20.3 3.26 0 0-21.14-17.35-21.22-21.03-.08-3.69 10.63 2.48 22.85 18.38 0 0 2.43-18.62 6.56-18.46 4.14.16-3 20.76-3 20.76s5.75-12.42 9.1-11.06c3.36 1.36-10.1 16.68-10.1 16.68"/> </svg>
