<svg xmlns="http://www.w3.org/2000/svg" viewBox="0 0 3048.3 1755" preserveAspectRatio="none"><style>.fp-bg-st2,.fp-bg-st3{fill-rule:evenodd;clip-rule:evenodd;fill:#bdbdbd}.fp-bg-st3{fill:#e0e0e0}</style><g id="sky_1_"><path id="sky" fill="#e0e0e0" d="M0 0h3048.3v1594H0z"/></g><g id="water_1_"><g id="water"><path id="rect-3" fill="#f2f2f2" d="M0 1433h3048.3v322H0z"/></g></g><g id="island"><path id="path-4" class="fp-bg-st2" d="M990.3 1432.5h693.3l-58-20.1-15.7-6.7H1582s-12.3-4.5-15.6-4.5c-3.4 0-29-4.5-29-4.5l-36.9 7.9-32.4 5.5h-9l-16.7-4.4-35.7-11.2-41.3-6.7h-26.8l-16.7 16.8-50.3-19-21.2-14.6-35.7-14.6-39-6.7-12.4 6.7-22.3 9-28 13.4-65.8 21.3-33.5 25.7-23.4 6.7z"/><path id="path-6" class="fp-bg-st3" d="M1034.2 1419.5l11.4-12 67-20.7 18.2-12 16.6-8 14.9-4 9.1-7.5 37.2 5.7-25.8 3.4-21.1 21.8 2.3-13.2-38.3 17.2-21.8 27-2.8-14.4-53.8 9.8-13.1 6.9z"/><path id="path-7" class="fp-bg-st3" d="M1177.5 1380l9.3-11.6 24.2-2.3-33.5 14z"/><path id="path-8" class="fp-bg-st3" d="M1128 1397l5.3-5.8 11.6-1.8-16.9 7.6z"/><path id="path-9" class="fp-bg-st3" d="M1473.3 1413.9l64.8-11.4 14.2 3.2-13.9 4-65.1 4.2z"/><path id="path-10" class="fp-bg-st3" d="M1477.2 1417.1l3.6 6.4 26-7.1-29.6.7z"/><path id="path-11" class="fp-bg-st3" d="M1584 1408.4l25.7-.6-20.9 8.1-4.9-7.5z"/></g><g id="reflection_1_"><g id="reflection" opacity=".1"><path id="path-5" d="M990.3 1432.7h693.3l-58 20.2-15.7 6.7H1582s-12.3 4.5-15.6 4.5c-3.4 0-29 4.4-29 4.4l-36.9-7.8-32.4-5.6h-9l-16.7 4.5-35.7 11.2-41.3 6.7h-26.8l-16.7-16.8-50.3 19-21.2 14.6-35.7 14.5-39 6.7-12.4-6.7-22.3-9-28-13.4-65.8-21.2-33.5-25.8-23.4-6.7z" fill-rule="evenodd" clip-rule="evenodd" fill="#4f4f4f"/></g></g><g id="palm_2_"><path id="palm" class="fp-bg-st2" d="M2215.5 1290.4l-28 .2-57.4-42.8s34.6-16.8 56.2-5.7c0 0-5-6-12.6-10 0 0 28 3.8 58.1 20.3l-8.4-23.4 14.2 12s-19.4-67 45.9-106l-.6 29.1 24.1-15.3s-14 36.2-14.2 81.8c16.1-38.3 37.2-54.1 37.2-54.1-5.7 6.6-12.1 31.7-12.1 31.7 26.7-44.5 92.5-36.3 92.5-36.3-27.4 9.7-68 78-64.7 79.1 27.2-3 63.1 0 105.4 20l-31.8 5.2 16.4 7.3-78.1 64.6-12.5-5 2.5 10a775 775 0 0 1 33.4 28.1 981.5 981.5 0 0 1 74.7 74.2 733 733 0 0 1 25.5 30.1l6.1 7.8 6 8c4 5.2 7.8 10.6 11.6 16l2.9 4.1-.2-7.9c0-8 .2-16.2.4-24.6l1.5-25.6c1-8.6 1.6-17.4 2.7-26.3 1.3-8.8 2.2-17.7 3.7-26.6 1.5-9 2.9-18 4.7-27 1-4.4 1.8-8.9 2.7-13.4l3-13.3a1006.6 1006.6 0 0 1 28.6-103 1217.8 1217.8 0 0 1 32.3-87 1280.3 1280.3 0 0 1 24.2-55.2l-2.9-13.8-12.4 13.7-136-32.8 16-18.9-42.6 12.8c40.3-50.4 83-76 122-92.1 0 0-91.7-60-131.6-55.4 0 0 76.7-50 136.7-11 0 0-23.2-27.2-34.3-32 0 0 35.8 6.9 79 44.6-28-56.4-67.2-92.8-67.2-92.8l39.1 4.4-18.2-35.7c104.4 8.7 121 103.5 121 103.5l10.4-23.5 3.7 34.2a253.8 253.8 0 0 1 59.8-60.3c-7 9.6-9.6 20-9.6 20 20-27 73.1-27 73.1-27l-45.2 87.9-34.9 16.6c151.5-23 176.7 85.1 176.7 85.1l-48.7-40.8 8.7 23.5a268.4 268.4 0 0 0-97.2 7.6c67 10.7 98.9 40.2 98.9 40.2-10.5-6.1-46.1-8.7-46.1-8.7 67 25.2 72.2 116.5 72.2 116.5-20-34.8-122.7-73-122.7-73l-3.5 20.8-39.1-43c19.5 27.9 43.3 80.6 26.2 160.1l-15.4-34.2-3.9 20.4-99.2-70 2.4-15.2-13.1 6.5 2-19.3a1117 1117 0 0 0-18.4 47.9 1275.2 1275.2 0 0 0-40.4 135.2c-3.9 16.8-7.6 34-10.5 51.2l-2.3 12.9-2 12.9c-1.3 8.6-2.2 17.1-3.2 25.6-1.2 8.5-1.6 17-2.5 25.3-.6 8.3-.9 16.5-1.4 24.6l-.4 23.7c.3 7.7.3 15.3.6 22.6l1.6 21.2 2.3 19.6 3 17.8a1475.9 1475.9 0 0 1 3.5 15.8 294 294 0 0 0 7.8 26.9c-.4-1.2-38.6-5.2-57.8-8.8l-3.5-8.7c-2.1-4.9-4.5-9.8-6.8-15l-7.8-15.3-8.7-15.5c-3.2-5.2-6.2-10.5-9.6-15.7-3.4-5.2-6.7-10.5-10.4-15.7l-5.3-7.7-5.6-7.7a720 720 0 0 0-47.1-58 865.8 865.8 0 0 0-64.5-65.2l-8.1-7.3 7.4 11.9-10.6-.1 6.4 9.2-42.3 77-9-12 .9 27.2c-36.5-46.3-37.8-88.2-34-112.6l-11.8 40.5-8.9-12.5s-54.7 57.5-56.6 86.6c0 0-25.7-61.2 10-98.9 0 0-22.5 13-27.3 20.3 0 0 11.3-29.3 51.6-57.5-14.6 2.8-40 9.6-65.7 25.8l-1.8-18-18.8 42s-18-78.3 88-111.5z"/></g><g id="palm_3_"><path id="palm_1_" class="fp-bg-st2" d="M759.1 1347l22.2.2 45.6-34s-27.4-13.4-44.6-4.5c0 0 4-4.8 10-8 0 0-22.3 3-46.1 16.2l6.7-18.7-11.4 9.5s15.4-53.2-36.4-84.1l.5 23-19.2-12s11.1 28.7 11.3 65c-12.8-30.5-29.6-43.1-29.6-43.1 4.5 5.3 9.7 25.2 9.7 25.2-21.2-35.3-73.5-28.9-73.5-28.9 21.8 7.8 54 62 51.4 63-21.6-2.5-50.2 0-83.7 15.8l25.2 4.2-13 5.7 62 51.3 10-4-2 8a615 615 0 0 0-26.5 22.4 780.2 780.2 0 0 0-59.4 59 582.6 582.6 0 0 0-20.2 24l-5 6-4.7 6.4c-3.2 4.1-6.2 8.5-9.2 12.7l-2.3 3.3.2-6.3-.3-19.6-1.3-20.3c-.6-6.8-1.2-13.8-2-20.8-1-7-1.8-14.2-3-21.2-1.2-7.1-2.3-14.3-3.8-21.4l-2-10.7-2.4-10.6a800.2 800.2 0 0 0-22.8-81.9 968 968 0 0 0-37.2-96.1l-7.7-16.8 2.3-11 9.9 10.9 108-26-12.7-15.1 33.9 10.2c-32-40-66-60.4-97-73.2 0 0 72.9-47.7 104.6-44 0 0-61-39.8-108.6-8.8 0 0 18.4-21.6 27.2-25.4 0 0-28.4 5.5-62.7 35.5 22.2-45 53.4-73.8 53.4-73.8l-31.1 3.4 14.5-28.3c-83 7-96.1 82.2-96.1 82.2l-8.3-18.6-3 27.2a201.6 201.6 0 0 0-47.4-48c5.5 7.7 7.6 16 7.6 16-16-21.5-58.1-21.5-58.1-21.5l36 69.8 27.6 13.2c-120.3-18.2-140.3 67.7-140.3 67.7l38.7-32.5-7 18.7c33.3-3.6 61.5 1.8 77.2 6-53.2 8.5-78.5 32-78.5 32 8.3-4.9 36.6-7 36.6-7-53.2 20-57.3 92.7-57.3 92.7 15.9-27.7 97.4-58 97.4-58l2.8 16.5 31-34.2c-15.4 22.1-34.4 64-20.7 127.3l12.2-27.3 3 16.3 78.8-55.6-1.8-12.2 10.4 5.2-1.6-15.3a887.6 887.6 0 0 1 14.6 38 1014.2 1014.2 0 0 1 32.1 107.5c3 13.3 6 27 8.4 40.6l1.8 10.3 1.5 10.3c1 6.8 1.8 13.6 2.6 20.3 1 6.8 1.3 13.5 2 20.1.5 6.6.7 13.1 1 19.6l.4 18.8-.5 18-1.2 16.8-1.9 15.6-2.4 14.1c-.3 2.3-.8 4.4-1.3 6.5l-1.5 6a233.8 233.8 0 0 1-6.1 21.4c.3-.9 30.6-4 45.9-7l2.7-6.9 5.5-11.8 6.1-12.2 7-12.4 7.6-12.4 8.2-12.5 4.3-6.1 4.4-6.2a572 572 0 0 1 37.4-46 687.7 687.7 0 0 1 51.3-51.8l6.4-5.8-6 9.4h8.5l-5 7.3 33.6 61.2 7.1-9.6-.7 21.6c29-36.8 30-70.1 27-89.4l9.3 32.1 7.1-10s43.5 45.8 45 68.9c0 0 20.4-48.6-7.9-78.6 0 0 17.8 10.4 21.7 16.2 0 0-9-23.3-41-45.8 11.6 2.3 31.7 7.7 52.2 20.6l1.4-14.4 14.9 33.5s14.3-62.3-69.9-88.7z"/></g></svg>
