<svg xmlns="http://www.w3.org/2000/svg" xmlns:xlink="http://www.w3.org/1999/xlink" viewBox="0 0 1103.79 735.62">
  <style>
    .st1{opacity:.6;clip-path:url(#SVGID_2_)}.st2{fill:#fff}.st6{clip-path:url(#SVGID_2_)}.st7,.st8{fill-rule:evenodd;clip-rule:evenodd;fill:#efc483}.st8{fill:#f2f2f2}.st10{fill:#cf8841}.st11{fill:#636c23}.st12{fill:#819327}.st13{fill:#b4cd2f}.st14{opacity:.43;fill:#a4765d}.st15{opacity:.2;fill:#262425}.st16{opacity:.5;fill:#819327}.st19{fill:#7e5635}.st20{fill:#644023}.st22{fill:#202020}.st24{fill:#fbfbfb}.st25,.st28{fill-rule:evenodd;clip-rule:evenodd;fill:#7e5635}.st28{fill:#433124}
  </style>
  <defs>
    <path id="SVGID_1_" d="M0 0h1103.79v735.62H0z"/>
  </defs>
  <clipPath id="SVGID_2_">
    <use overflow="visible" xlink:href="#SVGID_1_"/>
  </clipPath>
  <linearGradient id="SVGID_3_" x1="552.02" x2="552.02" y1="735.62" gradientUnits="userSpaceOnUse">
    <stop offset="0" stop-color="#cce8f0"/>
    <stop offset=".6" stop-color="#8ad0e9"/>
    <stop offset=".92" stop-color="#5ac4ed"/>
  </linearGradient>
  <path fill="url(#SVGID_3_)" d="M.24 0h1103.55v735.62H.24z" clip-path="url(#SVGID_2_)"/>
  <g class="st1">
    <path d="M199.34 401.84c-.12-3.46 2.76-9.34 6.05-10.43 3.28-1.08 6.87-.65 10.26 0 1.66.31 3.4.67 4.99.1 2.15-.77 3.35-2.97 4.69-4.81 5.35-7.4 15.2-10.7 24.26-9.67 5.25.6 10.03 2.53 14.65 5.01 7.61 4.1 6.83 4.83 14.59 4.37 12.2-.72 22.27-1.4 33.53 5.04 1.44.82 2.85 1.72 4.45 2.14 1.5.39 3.06.33 4.6.33 4.65 0 9.3.57 13.82 1.68 3.97.98 8.18 2.66 10.17 6.24-26.23.23-146.06-.1-146.06 0z" class="st2"/>
  </g>
  <g class="st1">
    <path d="M817.7 112.45c10.15-16 34.14-21.1 49.91-10.6 7.27-17.41 19.48-33.57 36.65-41.37 17.18-7.8 39.68-5.36 52.04 8.9 4.43 5.1 8.05 11.88 14.63 13.5 7.67 1.9 15.38-4.35 23.2-3.27 5.57.76 9.9 5.01 14.72 7.89 23.97 14.28 61.29 4 79.72 24.95H817.7z" class="st2"/>
  </g>
  <g class="st1">
    <path d="M244.94 122.52c3.28 3.53 7.76.1 12.08.1 4.8 0 9.65 1.6 13.39 4.64 1.15.93 2.27 2.02 3.72 2.34 1.08.24 2.2.01 3.29-.17 10.2-1.75 29.57 3.8 31.1 9.07H50.4c.4-1.42 14.98-12.28 23.26-14.06 6.16-1.32 12.53-1.23 18.82-.89 1.93.1 4.18.1 5.37-1.42.55-.7.76-1.6.99-2.46 3.88-14.77 19.5-23.96 34-25.11 8.6-.68 13.44.96 20.1 6.5 5.62 4.68 11.16 10.62 18.85 11.44 3.86.41 7.7-.6 11.53-1.28 11.62-2.1 23.54-1.33 35.1.8 10.35 1.92 19.1 2.5 26.48 10.46l.04.04z" class="st2"/>
  </g>
  <path fill="#7acceb" d="M.24 466.37h1103.32v269.25H.24z" clip-path="url(#SVGID_2_)"/>
  <path fill="#fcc881" d="M.24 506.34c97.64-.01 215.34 9.24 214.56 37.3-.79 28.29-136.6 22.08-136.6 43.84 0 8.62 40.5 15.5 212.88 25.86 216.64 13.02 490.36-108.14 812.47-107v229.28H.24V506.34z" clip-path="url(#SVGID_2_)"/>
  <path fill="#0298b5" fill-rule="evenodd" d="M647.33 475.28l-14.28-1.17-8.95 3.69-12.71 3.68H593.8l-16.96 6.83-20.6.66c-26.23 5.5-65.17 13.77-66.77 13.66-2.3-.16-17.73-6.1-20.03-6.74-2.3-.65-24.62-1.29-24.62-1.29l-26.26-9.96s-24.86 7.44-30.2 6.59l-71.6-24.86h370.49l-39.93 8.91z" clip-path="url(#SVGID_2_)" clip-rule="evenodd" opacity=".3"/>
  <g class="st6">
    <path d="M647.33 448.55l-14.28 2.35-8.95-7.38-12.71-7.37H593.8l-16.96-13.66-20.6-1.33c-26.23-10.98-65.17-27.53-66.77-27.31-2.3.32-17.73 12.2-20.03 13.5-2.3 1.28-24.62 2.56-24.62 2.56l-26.26 19.92s-24.86-14.88-30.2-13.17l-71.6 49.71h370.49l-39.93-17.82z" class="st7"/>
    <path d="M593.81 436.15l-20.02 10.43 8.79-8.63 2.67-4.16-8.31-11.18-.09-.12.13.1zM632.34 457.8c-.55-.31-18.68-9.73-18.68-10.6s3.85-4.23 3.85-4.23l-6.6-6.82s.2 0 .53.03l12.66 7.34 8.95 7.38c.5.41-.16 7.22-.71 6.9zM441.35 437.85c1.54 3.1 3.3 7.96 3.3 7.96l.5-9.1.46-8.57-9.96-4.33 9.18-13.9-26.26 19.92s19.65 4.9 21.1 5.54c.42.2 1.03 1.18 1.68 2.48zM471.8 415.77l3.1 2.77 5.54 4.91 6.45 5.74-.85-7.17-.27-2.31 5.94-7.07-1.41-1.26-6-5.33-2.87-2.56 8.05-9.64c-1.66.23-10.14 6.48-15.6 10.42a75.4 75.4 0 0 1-4.43 3.07c-.1.06-.22.11-.39.16l2.74 8.27z" class="st8"/>
  </g>
  <g class="st6">
    <path fill="#dbeff4" d="M432.47 563.53c0-1.62-35.84-2.94-80.05-2.94s-80.05 1.32-80.05 2.94c0 1.33 23.95 2.46 56.85 2.82a.25.25 0 0 0-.04.13c0 1.62 18.47 2.94 41.25 2.94s41.24-1.32 41.24-2.94c0-.31-.67-.61-1.92-.9 14.06-.52 22.72-1.25 22.72-2.05z" opacity=".6"/>
    <path d="M394.44 549.76l-3.2.06-4.27-3.32-2.85 1.38v-.02l-17.3-5.17-18.11-6.07-10.57 8.52h-10.96l-7.92 4.6-5.58 4.6-8.91-1.47-24.27 10.66 103.62-.26h35.84z" class="st7"/>
    <path d="M389.41 553.7s-6.69 4.38-7.14 4.89c.3-.5 2.81-4.96 3.07-5.37.28-.45 3.03-3.26 3.03-3.26l-1.4-3.46 4.27 3.32 3.2-.06-5.14 2.25.11 1.69zM338.14 545.14l12.48 6.5-5.48-5.38-1.66-2.59 5.18-6.98.05-.07-.08.07zM314.12 558.64c.34-.2 11.65-6.07 11.65-6.6 0-.54-2.4-2.65-2.4-2.65l4.1-4.25-.32.02-7.9 4.58-5.57 4.6c-.31.25.1 4.5.44 4.3z" class="st8"/>
  </g>
  <g class="st6">
    <path d="M57.32 354.27S5.81 496.5-20.45 625.41c0 0-6.22 4.16-15.14-2.13 0 0 30.28-121.11 90.17-269.83l2.74.82z" class="st10"/>
    <path d="M63.7 356.19s38.8 31.95 42.15 78.16c0 0-9.17-8.63-12.79-14.68l3.36-6.68-4.93 4.4s-3.74-5.64-6.06-9.95l2.6-8.71-6.05 5.87-27.4-51.15 9.12 2.74z" class="st11"/>
    <path d="M54.58 353.45s20.16.61 38.7 15.66 17.1 41.05 17.1 41.05-9.2-7.04-14.01-12.1l3.44-8.46-5.56 6.47s-6.47-5.55-10.62-11.32l4.97-7.55-6.59 6.16s-7.59-8.4-10.53-12.64c-10.68-15.4-16.9-17.27-16.9-17.27z" class="st12"/>
    <path d="M45.12 352.35s-48.28 14-69.63 55.12c0 0 11.84-4.3 17.55-8.42l-.44-7.46 2.79 5.99s5.66-3.7 9.5-6.74l1.05-9.04 3.24 7.79 45.4-36.14-9.46-1.1z" class="st11"/>
    <path d="M54.12 353.27s-14.32-14.21-38-17.32c-23.68-3.1-41.55 15.84-41.55 15.84s11.44 1.82 18.42 1.84l3.78-8.32-.88 8.49s8.49.87 15.53-.08l2.05-8.8.07 9.02s11.32-.27 16.42-1.06c18.52-2.85 24.16.39 24.16.39z" class="st12"/>
    <path d="M54.58 353.45s-1.92-2.05-11.46-11.56a301.26 301.26 0 0 0-14.1-13.27l-.26-10.47-5.47 6.95s-12.2-9.08-16.69-21.27c0 0 19.83-1.3 32.78 9.81 12.94 11.11 18.55 24.1 15.2 39.81z" class="st12"/>
    <path d="M52.51 351.3l2.07 2.15s9.1-21.73 16.44-33.55a45.85 45.85 0 0 1 2.54-3.7l-5.93-8.1 8.68 4.7a50.4 50.4 0 0 1 8.4-7.59l-6.62-8.9 10.14 6.65s7.6-10.84 11.08-25.16c0 0-20.43-2.5-33.94 16.96-13.51 19.46-12.86 56.54-12.86 56.54z" class="st13"/>
    <path d="M57.32 354.27S5.81 496.5-20.45 625.41c0 0-6.22 4.16-15.14-2.13 0 0 30.28-121.11 90.17-269.83l2.74.82z" class="st14"/>
    <path d="M30.32 380.96l13.56 1.15-14.12 1.63c-1.02 6.2-.68 12.61.34 18.62l14.05-4.11-13.5 7.1c2.72 13.08 8.17 23.4 8.17 23.4s6.32-4.28 12.92-12l-5.43-9.83 6.87 8.1a64.03 64.03 0 0 0 9.35-15.47l-7.15-5.97 7.84 4.25a50.97 50.97 0 0 0 3.3-17.44l-8.6-4.5 8.58 2.47c-.66-17.6-11.92-24.9-11.92-24.9s-12.24-1.41-22.22 21.37a36.64 36.64 0 0 0-2.04 6.13z" class="st12"/>
    <path d="M54.58 353.45s2.73-.66 15.92-3.36a301.28 301.28 0 0 1 19.08-3.33l5.97-8.61.75 8.81s15.18-.88 25.63-8.6c0 0-15.85-11.98-32.77-9.81-16.93 2.16-28.74 9.93-34.58 24.9z" class="st13"/>
    <path d="M52.51 351.3s4.46-.4 8.33 6.61c3.86 7.01-9.57 19.26-9.57 19.26s-10.21-11.11-9.03-17.7c1.19-6.58 10.27-8.17 10.27-8.17z" class="st13"/>
    <path d="M80.6 287.3c-11.38 6.2-19.97 18.7-21.64 31.57A66.96 66.96 0 0 1 80.6 287.3zM104.57 334.32c-11.83-4.67-26.97-1.67-36.1 7.2a48.85 48.85 0 0 1 36.1-7.2zM102.57 386.33c-5.76-11.92-17.65-21.55-30.51-24.7a75.45 75.45 0 0 1 30.5 24.7zM49.44 333.78c-4.65-12.18-16.27-22.23-29-25.05a62.14 62.14 0 0 1 29 25.05zM54.11 354.97a40.66 40.66 0 0 0-1.9 16.19 40.66 40.66 0 0 0 1.9-16.19zM52.05 379.7a233.37 233.37 0 0 0-12.57 38.83 233.33 233.33 0 0 0 12.57-38.84zM56.24 404.28a19.6 19.6 0 0 0-6.43-9.03 19.6 19.6 0 0 0 6.43 9.03zM61.96 390.26a12.67 12.67 0 0 0-7.08-5.16 12.67 12.67 0 0 0 7.08 5.16zM45.76 388.42a13.78 13.78 0 0 0-12.4.97c4.1-.15 8.32-.49 12.4-.97zM30.65 342.35c-9.01-5.65-21.94-6.02-31.26-.83a50.62 50.62 0 0 1 31.26.83zM9.62 343.15a10.74 10.74 0 0 0-2.23 7.45 10.74 10.74 0 0 0 2.23-7.45zM18.6 345.33c-1.17 1.13-1.39 2.42-.65 3.86 1.18-1.12 1.4-2.41.65-3.86zM14.85 378.19a10.06 10.06 0 0 0 .23-7.54 10.07 10.07 0 0 0-.23 7.54z" class="st15"/>
  </g>
  <g class="st6">
    <path d="M220.12 251.6s-64.92 59.28-109.3 153.62C78.4 474.19 44.73 536.85 7.74 600.88c0 0-10.3-3.14-19.53-15.7 0 0 46.07-63.28 115.08-195.27 25.06-47.93 57.45-96.33 111.67-144.52l5.17 6.21z" class="st10"/>
    <path d="M180.41 286.97l19.28 2.5-20.26 1.43c-1.85 8.79-1.77 17.96-.7 26.6l20.32-4.98-19.72 9.27c3.05 18.85 10.17 33.92 10.17 33.92s9.3-5.7 19.2-16.3l-7.12-14.38 9.3 12a91.5 91.5 0 0 0 14.32-21.48l-9.82-8.98 10.92 6.56a72.84 72.84 0 0 0 4.27-13.22c.9-4.09 1.39-7.9 1.55-11.46l-12-6.96 12.1 4.06c.17-25.15-15.44-36.3-15.44-36.3s-17.38-2.79-33.08 29.09a52.35 52.35 0 0 0-3.29 8.63z" class="st12"/>
    <path d="M229.85 253.04s55.79 45.22 61.09 111.2c0 0-13.2-12.22-18.43-20.83l4.72-9.58-7 6.34s-5.4-8.01-8.77-14.15l3.62-12.47-8.58 8.46-39.72-72.77 13.07 3.8z" class="st11"/>
    <path d="M216.78 249.24s28.8.65 55.47 21.94c26.67 21.28 24.88 58.45 24.88 58.45s-13.2-9.96-20.14-17.13l4.81-12.13-7.86 9.31s-9.31-7.86-15.3-16.05l7.01-10.84-9.34 8.88s-10.94-11.92-15.2-17.95c-15.42-21.89-24.33-24.48-24.33-24.48z" class="st12"/>
    <path d="M216.78 249.24s4 .35 23.1 2.66a430.64 430.64 0 0 1 27.36 4.14l11.99-8.96-2.98 12.28s20.97 5.7 38.62-.03c0 0-16.04-23.42-39.95-28.15s-43.44.42-58.14 18.06z" class="st13"/>
    <path d="M204.45 243.46s-71.75-2.91-119.32 43.11c0 0 17.98-.45 27.6-3.45l2.78-10.31 1.07 9.38s9.35-2.45 15.93-4.83l5.52-11.76 1.57 22.21c28.86-6.5 53.9-20.74 77.18-38.57l-12.33-5.78z" class="st11"/>
    <path d="M216.24 248.78s-12.95-25.74-43.63-40.69-63.48 2.63-63.48 2.63 14.67 7.65 24.13 10.84l8.88-9.56-5.03 11.1s11.1 5.03 21.07 6.93l6.78-11-4 12.26s15.45 4.76 22.72 6.02c26.4 4.53 32.56 11.47 32.56 11.47z" class="st12"/>
    <path d="M216.78 249.24s-1.68-3.65-10.28-20.86c-7.2-14.4-13.1-24.37-13.1-24.37l4.4-14.3-10.56 6.93s-12.42-17.83-12.97-36.38c0 0 27.45 7.23 39.96 28.15 12.5 20.92 14.21 41.05 2.55 60.83z" class="st12"/>
    <path d="M214.95 245.39l1.83 3.85s22.2-25.32 37.5-38c1.7-1.43 3.41-2.7 5.11-3.87l-4.36-13.67 9.62 10.32a71.99 71.99 0 0 1 14.83-6.47l-4.94-15.08 10.72 13.61s15.21-11.23 26.42-29.06c0 0-26.54-12.65-53.67 7.59-27.13 20.24-43.06 70.78-43.06 70.78z" class="st13"/>
    <path d="M214.95 245.39s6.22 1.48 8.28 12.73c2.07 11.25-21.69 21.76-21.69 21.76s-8.8-19.7-4.2-28.07c4.58-8.38 17.61-6.42 17.61-6.42z" class="st13"/>
    <path d="M286.29 170.58c-29.44.5-50.13 33.79-59.63 59.72 10.56-20.75 30.06-56.98 59.63-59.72zM307.06 256.43c-14.7-24.82-44.74-26.24-64.92-21.71 17.6-1.1 48.82-2.13 64.92 21.7z" class="st16"/>
    <path d="M266.16 273.98a25.5 25.5 0 0 0-14.22 9.86c4.81-3.13 9.6-6.46 14.22-9.86zM260.28 268.12a17.03 17.03 0 0 0-12.29 5.45 93.3 93.3 0 0 0 12.29-5.45zM274.08 316.89a104.17 104.17 0 0 0-5.81 10.94 14.14 14.14 0 0 0 5.8-10.94zM263 301.4c-2.8 3.08-5.54 6.42-8 9.77a14.45 14.45 0 0 0 8-9.77zM211.85 282.04c-8.5 21.3-15.99 43.28-22.22 65.37a661.47 661.47 0 0 0 22.22-65.37zM224.02 299.39a19.96 19.96 0 0 0-7.05-8.69 19.96 19.96 0 0 0 7.05 8.69zM214.23 320.27a17.41 17.41 0 0 0-6.1-8.42 17.41 17.41 0 0 0 6.1 8.42zM202.69 299.63c-5.16-.4-10.88.38-15.74 2.15 5.16.4 10.88-.38 15.74-2.15zM177.61 254.53a19.63 19.63 0 0 0-4.04 13.5 77.18 77.18 0 0 0 4.04-13.5zM162.33 253a43.6 43.6 0 0 0-3.76 22.72c1.4-7.53 2.66-15.15 3.76-22.72zM129.03 264.33a30.86 30.86 0 0 0-4.5 13.36 30.86 30.86 0 0 0 4.5-13.36zM183.36 216.68a24.4 24.4 0 0 0-9.91 16.32c2.96-5.7 6.2-11.05 9.9-16.32zM162.83 209.02a23.6 23.6 0 0 0-8.17 13.79c2.95-4.4 5.73-9.1 8.17-13.79zM154.97 208.2a17.33 17.33 0 0 0-7.95 11.3c2.82-3.58 5.53-7.44 7.95-11.3zM214.16 195.53a51.01 51.01 0 0 0-11.39 14.34 51 51 0 0 0 11.39-14.34zM200.82 181.69a22.79 22.79 0 0 0-13.8 7.72c4.68-2.3 9.39-4.93 13.8-7.72zM194.42 176.38a21.71 21.71 0 0 0-10.61 4.94 21.71 21.71 0 0 0 10.6-4.94zM271.15 238.38a50.7 50.7 0 0 0-12.23 13.56 50.7 50.7 0 0 0 12.23-13.56zM260.82 235.83a31.93 31.93 0 0 0-9.35 10.9 31.94 31.94 0 0 0 9.35-10.9zM287.32 245.28a19.95 19.95 0 0 0-2.87 10.81 19.95 19.95 0 0 0 2.87-10.8zM288.98 187.46c.16-4.9-3.51-10.12-8.18-11.6a38.55 38.55 0 0 1 8.18 11.6zM294.14 180.38a9.7 9.7 0 0 0-6.4-9.05 102.1 102.1 0 0 1 6.4 9.05zM270.8 195.7c-.26-4.6-4.05-9.37-8.47-10.66a52.42 52.42 0 0 1 8.46 10.66zM253.17 207.16a4.94 4.94 0 0 0-2.15-4.7 4.94 4.94 0 0 0 2.15 4.7zM214.98 250a152.54 152.54 0 0 0-7.85 19.46 42.9 42.9 0 0 0 7.85-19.46z" class="st15"/>
  </g>
  <g class="st6">
    <path d="M1061.22 327.63s24.03 149.35 63.68 274.79c0 0-3.42 6.66-14.27 5.5 0 0-32.35-120.59-52.21-279.67l2.8-.62z" class="st10"/>
    <path d="M1067.72 326.2s49.44 9.1 74.8 47.86c0 0-12.2-3.08-18.3-6.62l-.31-7.47-2.18 6.24s-6-3.11-10.13-5.75l-1.95-8.88-2.44 8.07-48.8-31.4 9.31-2.05z" class="st11"/>
    <path d="M1058.42 328.25s17.92-9.26 41.44-5.11 34.87 27.58 34.87 27.58-11.45-1.7-18.12-3.78l-1.1-9.06-1.71 8.35s-8.36-1.7-14.79-4.73l.68-9.02-2.76 8.6s-10.72-3.67-15.35-5.95c-16.82-8.28-23.16-6.88-23.16-6.88z" class="st12"/>
    <path d="M1049.61 331.88s-35.4 35.69-34.1 82c0 0 8.27-9.5 11.26-15.9l-4.01-6.3 5.35 3.88s3.15-5.98 5.03-10.5l-3.47-8.41 6.61 5.23 22.14-53.63-8.8 3.63z" class="st11"/>
    <path d="M1057.93 328.3s-19.42-5.46-41.63 3.32c-22.2 8.78-28.62 34.03-28.62 34.03s10.88-3.97 16.99-7.34l-.74-9.1 3.36 7.83s7.84-3.35 13.53-7.6l-2.48-8.7 4.44 7.86s9.76-5.74 13.84-8.9c14.81-11.49 21.3-11.4 21.3-11.4z" class="st12"/>
    <path d="M1058.42 328.25s-2.68-.87-15.63-4.55c-10.84-3.09-18.78-4.75-18.78-4.75l-5.3-9.03-1.41 8.74s-15.07-2.01-24.92-10.5c0 0 16.7-10.75 33.42-7.33 16.71 3.42 27.91 12.05 32.62 27.42z" class="st12"/>
    <path d="M1055.57 327.37l2.85.88s-2.6-23.43-1.92-37.32c.07-1.56.22-3.05.42-4.47l-9.12-4.2 9.88-.1a50.4 50.4 0 0 1 3.66-10.72l-10.12-4.57 12.1.9s1.38-13.17-2.54-27.38c0 0-19.07 7.73-21.43 31.3-2.36 23.58 16.22 55.68 16.22 55.68z" class="st13"/>
    <path d="M1061.22 327.63s24.03 149.35 63.68 274.79c0 0-3.42 6.66-14.27 5.5 0 0-32.35-120.59-52.21-279.67l2.8-.62z" class="st14"/>
    <path d="M1050.57 364.07l12.42-5.58-11.56 8.28c2.12 5.92 5.53 11.36 9.34 16.11l10.29-10.41-8.36 12.75c8.73 10.13 18.5 16.5 18.5 16.5s3.46-6.81 5.47-16.76l-9.51-5.96 9.93 3.74c.94-5.4 1.4-11.6.67-18.06l-9.15-1.75 8.92-.1a50.97 50.97 0 0 0-5.58-16.84l-9.72.26 8.71-2.02c-9.12-15.06-22.52-15.98-22.52-15.98s-11.38 4.71-9.05 29.47c.21 2.15.63 4.28 1.2 6.35z" class="st12"/>
    <path d="M1058.42 328.25s2.07-1.9 12.29-10.68c8.54-7.34 15.06-12.18 15.06-12.18l1.03-10.42 4.94 7.34s12.84-8.14 18.23-19.96c0 0-19.68-2.78-33.42 7.33-13.74 10.11-20.3 22.64-18.13 38.57z" class="st13"/>
    <path d="M1055.57 327.37s3.7-2.51 10.49 1.74.99 21.48.99 21.48-14.33-4.76-16.49-11.1c-2.16-6.32 5-12.12 5-12.12z" class="st13"/>
    <path d="M1049.04 257.78c-6.94 10.96-8.37 26.05-3.59 38.1a66.96 66.96 0 0 1 3.6-38.1zM1092.83 287.25c-12.61 1.65-24.39 11.63-28.07 23.81a48.85 48.85 0 0 1 28.07-23.81zM1116.34 333.68c-10.83-7.62-25.9-10.27-38.67-6.77a75.45 75.45 0 0 1 38.67 6.77zM1044.37 313.54c-9.98-8.39-25.02-11.53-37.52-7.81a62.14 62.14 0 0 1 37.52 7.81zM1058.75 329.8a40.66 40.66 0 0 0 6.2 15.08 40.66 40.66 0 0 0-6.2-15.08zM1068.95 352.41c1.43 13.43 4.1 27.1 7.87 40.06a233.33 233.33 0 0 0-7.87-40.06zM1084.55 371.87a19.6 19.6 0 0 0-10-4.77 19.6 19.6 0 0 0 10 4.77zM1082.74 356.84a12.67 12.67 0 0 0-8.69-1.07 12.67 12.67 0 0 0 8.7 1.07zM1067.7 363.09c-4.15.37-8.42 3.2-10.38 6.87a150.4 150.4 0 0 0 10.37-6.87zM1032.11 330.16c-10.62-.56-22.1 5.4-27.73 14.46a50.62 50.62 0 0 1 27.73-14.46zM1014.11 341.07c-.39 2.74.17 5.27 1.67 7.6.4-2.75-.16-5.28-1.67-7.6zM1023.03 338.62c-.48 1.55-.05 2.78 1.3 3.69.48-1.56.05-2.79-1.3-3.7zM1035.7 369.16a10.06 10.06 0 0 0-3.46-6.7c.11 2.31 1.58 5.22 3.46 6.7z" class="st15"/>
  </g>
  <g class="st6">
    <path d="M906.1 225.11s60.77 63.54 98.66 160.66c27.7 71.01 57.05 135.8 89.62 202.19 0 0 10.5-2.43 20.56-14.34 0 0-41.7-66.25-101.62-202.6-21.76-49.52-50.8-100-101.64-151.76l-5.57 5.85z" class="st10"/>
    <path d="M943.33 263.09l-19.4 1.19 20.11 2.8c1.26 8.89.56 18.03-1.1 26.57L923 287.31l19.04 10.59c-4.31 18.6-12.44 33.15-12.44 33.15s-8.89-6.31-18.05-17.55l8.08-13.87-10.08 11.34a91.5 91.5 0 0 1-12.84-22.4l10.4-8.3-11.34 5.81a72.84 72.84 0 0 1-3.36-13.47 67.88 67.88 0 0 1-.78-11.54l12.45-6.14-12.35 3.24c1.53-25.11 17.86-35.18 17.86-35.18s17.53-1.6 31.03 31.26a52.35 52.35 0 0 1 2.7 8.84z" class="st12"/>
    <path d="M896.3 225.9s-58.72 41.34-68.47 106.8c0 0 14-11.3 19.8-19.53l-4.06-9.88 6.55 6.8s5.93-7.63 9.71-13.52l-2.77-12.7 7.98 9.03 44.56-69.91-13.3 2.9z" class="st11"/>
    <path d="M909.6 222.99s-28.78-1.3-56.83 18.13c-28.05 19.43-28.78 56.64-28.78 56.64s13.86-9.05 21.26-15.73l-3.98-12.43 7.21 9.82s9.82-7.21 16.36-14.98l-6.27-11.3 8.72 9.5s11.72-11.15 16.37-16.88C900.54 224.97 909.6 223 909.6 223z" class="st12"/>
    <path d="M909.6 222.99s-4.02.07-23.23 1.09c-16.07.84-27.57 2.28-27.57 2.28l-11.36-9.75 2.14 12.45s-21.3 4.26-38.53-2.64c0 0 17.6-22.28 41.77-25.39s43.3 3.36 56.78 21.96z" class="st13"/>
    <path d="M922.29 218.05s71.79 1.95 116.13 51.09c0 0-17.9-1.67-27.3-5.32l-2.08-10.47-1.7 9.29s-9.16-3.08-15.57-5.9l-4.7-12.1-3.08 22.05c-28.35-8.45-52.38-24.34-74.39-43.7l12.69-4.94z" class="st11"/>
    <path d="M910.17 222.56s14.66-24.8 46.28-37.64c31.61-12.84 63.15 6.91 63.15 6.91s-15.15 6.65-24.8 9.19l-8.22-10.14 4.27 11.41s-11.4 4.27-21.48 5.5l-6.02-11.43 3.16 12.5s-15.74 3.7-23.08 4.46c-26.64 2.74-33.26 9.24-33.26 9.24z" class="st12"/>
    <path d="M909.6 222.99s1.92-3.53 11.67-20.12c8.15-13.88 14.72-23.43 14.72-23.43l-3.43-14.57 10.07 7.64s13.6-16.95 15.4-35.43c0 0-27.88 5.36-41.77 25.39-13.9 20.03-16.96 40-6.66 60.52z" class="st12"/>
    <path d="M911.68 219.26L909.6 223s-20.43-26.76-34.84-40.45a65.5 65.5 0 0 0-4.84-4.21l5.27-13.34-10.3 9.64a71.99 71.99 0 0 0-14.35-7.46l5.95-14.7-11.62 12.85s-14.42-12.24-24.4-30.79c0 0 27.34-10.82 53.04 11.2 25.7 22.04 38.17 73.53 38.17 73.53z" class="st13"/>
    <path d="M911.68 219.26s-6.3 1.06-9.12 12.15c-2.82 11.09 20.17 23.18 20.17 23.18s10.11-19.06 6.1-27.73c-4.02-8.67-17.15-7.6-17.15-7.6z" class="st13"/>
    <path d="M845.57 139.8c29.34 2.5 47.73 37.1 55.46 63.62-9.14-21.42-26.14-58.89-55.46-63.61zM819.04 224.05c16.34-23.77 46.41-23.15 66.24-17.27-17.48-2.3-48.57-5.43-66.24 17.27z" class="st16"/>
    <path d="M858.66 244.32a25.5 25.5 0 0 1 13.52 10.8c-4.59-3.44-9.14-7.09-13.52-10.8zM864.92 238.88c4.44.26 9.18 2.75 11.9 6.27a93.3 93.3 0 0 1-11.9-6.27zM847.86 286.6a104.2 104.2 0 0 1 5.05 11.31 14.14 14.14 0 0 1-5.05-11.3zM859.96 271.9c2.59 3.26 5.09 6.78 7.32 10.3a14.45 14.45 0 0 1-7.32-10.3zM912.3 256.05a661.42 661.42 0 0 1 17.75 66.71 661.48 661.48 0 0 1-17.76-66.71zM898.98 272.53a19.96 19.96 0 0 1 7.62-8.2 19.96 19.96 0 0 1-7.62 8.2zM907.34 294.03a17.41 17.41 0 0 1 6.65-8 17.41 17.41 0 0 1-6.65 8zM920.25 274.21a38.71 38.71 0 0 1 15.56 3.22 38.72 38.72 0 0 1-15.56-3.22zM948.32 230.91a19.63 19.63 0 0 1 3.12 13.75 77.18 77.18 0 0 1-3.12-13.75zM963.67 230.42a43.6 43.6 0 0 1 2.21 22.92c-.9-7.6-1.63-15.29-2.21-22.92zM996.12 243.98a30.86 30.86 0 0 1 3.6 13.63 30.86 30.86 0 0 1-3.6-13.63zM945.15 192.77a24.4 24.4 0 0 1 8.78 16.94 141.63 141.63 0 0 0-8.78-16.94zM966.14 186.5a23.6 23.6 0 0 1 7.22 14.32c-2.64-4.59-5.1-9.46-7.22-14.31zM974.04 186.21a17.33 17.33 0 0 1 7.17 11.83c-2.57-3.77-5.02-7.8-7.17-11.83zM915.85 169.57a51.02 51.02 0 0 1 10.39 15.08 51 51 0 0 1-10.4-15.08zM930.09 156.67a22.79 22.79 0 0 1 13.26 8.64c-4.53-2.61-9.04-5.56-13.26-8.64zM936.84 151.8c3.7.83 7.58 2.96 10.25 5.65a21.71 21.71 0 0 1-10.25-5.64zM856.09 208.47a50.7 50.7 0 0 1 11.29 14.35 50.7 50.7 0 0 1-11.29-14.35zM866.57 206.62a31.93 31.93 0 0 1 8.59 11.5 31.94 31.94 0 0 1-8.6-11.5zM839.5 214.27c1.7 3.19 2.51 7.38 2.12 10.98a19.95 19.95 0 0 1-2.13-10.98zM841.74 156.46c.17-4.9 4.2-9.86 8.94-11.02a38.55 38.55 0 0 0-8.94 11.02zM837.08 149.05a9.7 9.7 0 0 1 7-8.6 102.1 102.1 0 0 0-7 8.6zM859.33 165.92c.57-4.58 4.66-9.08 9.16-10.07a52.42 52.42 0 0 0-9.16 10.07zM876.14 178.54a4.94 4.94 0 0 1 2.46-4.54 4.94 4.94 0 0 1-2.46 4.54zM911.34 223.86c2.6 6.42 4.83 13.23 6.52 19.95a42.9 42.9 0 0 1-6.52-19.95z" class="st15"/>
  </g>
  <g class="st6">
    <path d="M926.1 346.4c1.2-.3 2.43-.4 3.67-.43 1.23-.04 2.48.06 3.72.27 1.23.24 2.49.55 3.65 1.2a7.28 7.28 0 0 1 3 2.7l-1.53.14a11.12 11.12 0 0 1 3.47-4.54c.8-.55 1.71-.96 2.66-1.12.95-.18 1.91 0 2.76.27-.91.04-1.78.11-2.56.45a6.9 6.9 0 0 0-2.07 1.36c-.6.58-1.1 1.25-1.55 1.95-.44.7-.84 1.5-1.12 2.22l-.6 1.54-.93-1.4a6.75 6.75 0 0 0-2.34-2.09c-.96-.53-2.04-.95-3.17-1.25a45.9 45.9 0 0 0-7.06-1.28zM895.95 380.6a19.24 19.24 0 0 1 7.39-.15c1.23.23 2.49.55 3.65 1.19a7.28 7.28 0 0 1 3 2.71l-1.53.14a11.13 11.13 0 0 1 3.47-4.54 6.6 6.6 0 0 1 2.66-1.12c.95-.19 1.91 0 2.76.27-.91.03-1.78.1-2.57.45a6.9 6.9 0 0 0-2.06 1.36c-.6.57-1.1 1.25-1.55 1.95-.44.7-.84 1.5-1.12 2.22l-.61 1.54-.92-1.4a6.75 6.75 0 0 0-2.34-2.09c-.96-.54-2.04-.95-3.17-1.25a45.9 45.9 0 0 0-7.06-1.28zM754.05 343.5c1.2-.3 2.43-.4 3.66-.43 1.24-.04 2.48.06 3.73.27 1.23.24 2.48.55 3.64 1.2a7.28 7.28 0 0 1 3 2.7l-1.53.14a11.13 11.13 0 0 1 3.48-4.54 6.6 6.6 0 0 1 2.66-1.12c.95-.19 1.9 0 2.76.27-.92.04-1.79.11-2.57.45a6.9 6.9 0 0 0-2.07 1.36c-.6.57-1.1 1.25-1.55 1.95-.44.7-.83 1.5-1.12 2.22l-.6 1.54-.92-1.4a6.75 6.75 0 0 0-2.34-2.09c-.96-.53-2.05-.95-3.17-1.25a45.9 45.9 0 0 0-7.06-1.28zM947.43 322.93a9.75 9.75 0 0 1 3.7-.08c.61.12 1.24.28 1.82.6.58.3 1.14.74 1.5 1.36l-.77.07a5.57 5.57 0 0 1 1.74-2.27c.4-.28.86-.49 1.33-.57.48-.09.96 0 1.38.14-.46.02-.9.05-1.28.22-.4.17-.74.4-1.04.68-.3.3-.54.63-.77.98a7 7 0 0 0-.56 1.11l-.3.76-.46-.7c-.57-.84-1.64-1.36-2.76-1.66a22.94 22.94 0 0 0-3.53-.64zM849.38 365.96a9.75 9.75 0 0 1 3.7-.08c.6.12 1.23.28 1.81.6.59.3 1.14.74 1.5 1.36l-.76.06a5.57 5.57 0 0 1 1.74-2.27c.4-.27.85-.48 1.33-.56.47-.09.95 0 1.38.14-.46.02-.9.05-1.29.22-.39.17-.73.4-1.03.68-.3.29-.55.63-.78.98a7 7 0 0 0-.56 1.1l-.3.77-.46-.7c-.57-.84-1.63-1.36-2.75-1.66a22.94 22.94 0 0 0-3.53-.64zM871.02 337.4a9.75 9.75 0 0 1 3.7-.08c.61.12 1.24.28 1.82.6.58.3 1.14.74 1.5 1.36l-.76.07a5.56 5.56 0 0 1 1.73-2.27c.4-.28.86-.49 1.33-.57.48-.09.96 0 1.38.14-.45.02-.89.06-1.28.23-.39.16-.73.39-1.03.68-.3.28-.55.62-.78.97-.22.35-.42.75-.56 1.11l-.3.76-.46-.7c-.57-.84-1.64-1.36-2.76-1.66a22.94 22.94 0 0 0-3.53-.64z" class="st2"/>
  </g>
  <path fill="#fff" d="M443.2 694.45C327.01 710.3 70.96 708.94 0 537.93v197.7h1103.55l.24-197.2S611.28 671.54 443.2 694.44z" clip-path="url(#SVGID_2_)"/>
  <path fill="#333" d="M1025.35 664.18c0 6.1-62.34 9.67-139.2 11.03-136 2.41-139.16-.96-139.16-7.05s62.28-15.01 139.16-15.01 139.2 4.94 139.2 11.03z" clip-path="url(#SVGID_2_)" opacity=".05"/>
  <g class="st6">
    <path d="M885.54 573.94a23.44 23.44 0 0 0 20.28-35.16l-46.8-81.04a23.44 23.44 0 1 0-40.59 23.43l46.8 81.05a23.43 23.43 0 0 0 20.31 11.72z" class="st19"/>
    <path d="M893.15 572.66a191.78 191.78 0 0 0-7-40.33c-4.96-17.33-27.12-72.45-27.12-72.45-6.46-11.2-20.77-17.18-31.97-10.75l-.05.03a23.43 23.43 0 0 0-8.58 32.01l38.11 66.01 8.68 15.04a23.4 23.4 0 0 0 20.32 11.72c2.56 0 5.13-.42 7.61-1.28zM750.96 618.61s4.78 32.77 4.77 36c0 2 .08 3.05-1.25 4.55-2.7 3.03-7.12 6.59-7.5 9.61-.63 5.2 9.45 6.01 13.05 6.19 7.66.38 22.9.6 30.69-.49 8.6-1.2 8.42-3.21 8.7-11.95.03-1.12.23-43.9.23-43.9h-48.69z" class="st20"/>
    <path d="M837.29 657.91c27.3-6.58 47.34-29.88 50.18-57.82l.13-1.36c2.09-22.5-.15-45.18-6.36-66.9a7545.15 7545.15 0 0 0-23.28-79.95 1523.7 1523.7 0 0 0-13.73-44.17c-3.46-10.29-6.96-30.22-32.9-30.22-26.52 0-29.42 19.94-32.9 30.22-3.48 10.28-8.42 26.31-13.75 44.17a7265.1 7265.1 0 0 0-23.34 80.2 182.37 182.37 0 0 0-6.24 67.83c2.76 28.01 22.84 51.38 50.2 57.99 7.5 1.81 16.13 2.89 26.03 2.89 9.87 0 18.47-1.07 25.96-2.88z" class="st19"/>
    <path d="M814.38 374.35c-4 .68-7.26 2.23-9.96 4.07h11.68s1.3-2.03 2.08-2.72c-2.33.16-4.16.48-6.05 1.32.7-1.3 1.25-1.79 2.25-2.67z" class="st19"/>
    <path fill="#f4c38e" d="M811.3 416.68c-12.85 0-12.85 5.45-12.85 12.18 0 6.73 3.14 13.52 12.85 13.52 9.72 0 12.85-6.8 12.85-13.52 0-6.73 0-12.18-12.85-12.18z"/>
    <path d="M817.83 424.11c-.74 2.63-3.69 4.8-6.53 4.86-2.84-.06-5.79-2.23-6.53-4.86-.57-2.02 1.14-3.25 2.13-3.52 2.13-.57 6.7-.64 8.8 0 .99.3 2.7 1.5 2.13 3.52z" class="st22"/>
    <path fill="none" stroke="#333" stroke-linecap="round" stroke-miterlimit="10" stroke-width="1.51" d="M806.96 422.7c2-1.04 6.23-1.12 8.48 0"/>
    <circle cx="826.65" cy="412.25" r="3.43" class="st22"/>
    <circle cx="827.28" cy="411.12" r="1.13" class="st24"/>
    <circle cx="795.74" cy="412.25" r="3.43" class="st22"/>
    <circle cx="796.36" cy="411.12" r="1.13" class="st24"/>
    <g>
      <circle cx="788.37" cy="386.07" r="8.57" class="st19"/>
      <circle cx="788.37" cy="386.07" r="5.57" class="st20"/>
    </g>
    <g>
      <circle cx="834.04" cy="386.07" r="8.57" class="st19"/>
      <circle cx="834.04" cy="386.07" r="5.57" class="st20"/>
    </g>
    <g>
      <path d="M885.77 593.82c1.8.12 3.83 1.06 6.07 4.13.9-11.48-4.17-24.7-4.17-24.7l-1.9 20.57z" class="st25"/>
      <path d="M883.31 610.1c1.77.32 3.68 1.48 5.57 4.79 2.2-11.31-1.37-25.03-1.37-25.03l-4.2 20.23z" class="st25"/>
    </g>
    <g>
      <path fill="#7e5636" d="M811.69 618.61s4.78 32.77 4.77 36c0 2 .08 3.05-1.25 4.55-2.7 3.03-7.12 6.59-7.5 9.61-.63 5.2 9.45 6.01 13.05 6.19 7.66.38 22.9.6 30.69-.49 8.6-1.2 8.42-3.21 8.7-11.95.03-1.12.23-43.9.23-43.9H811.7z"/>
    </g>
    <path fill="none" stroke="#7e5636" stroke-linecap="round" stroke-miterlimit="10" stroke-width="46.87" d="M784.14 469.5h-13.58a33.22 33.22 0 0 1-33.21-33.22V422.7"/>
    <g>
      <path d="M737.8 405.24c1.85-.6 1.33-4.26 1.54-5.22.22-.96 1.92-6.38.63-6.77-1.42-.42-4.67 3.89-5.36 5.92-.88 2.6-.3 7.2 3.2 6.07M745.95 405.24c1.85-.6 1.32-4.26 1.54-5.22.22-.96 1.91-6.38.63-6.77-1.42-.42-4.67 3.89-5.36 5.92-.89 2.6-.3 7.2 3.2 6.07M729.66 405.24c1.85-.6 1.32-4.26 1.54-5.22.21-.96 1.9-6.38.62-6.77-1.41-.42-4.67 3.89-5.36 5.92-.88 2.6-.3 7.2 3.2 6.07" class="st28"/>
    </g>
    <ellipse cx="737.35" cy="422.7" class="st28" rx="12.15" ry="10.63"/>
  </g>
</svg>
