<?xml version="1.0" encoding="UTF-8"?> <svg xmlns="http://www.w3.org/2000/svg" xmlns:xlink="http://www.w3.org/1999/xlink" version="1.1" id="Ebene_1" x="0px" y="0px" viewBox="0 0 242.4 35.9" style="enable-background:new 0 0 242.4 35.9;" xml:space="preserve"> <style type="text/css"> .st0{fill:none;stroke:#416680;stroke-width:0.75;} .st1{fill:#416680;} </style> <line class="st0" x1="27.3" y1="0" x2="27.3" y2="35.9"></line> <g> <path class="st1" d="M56.2,9.4c0,2.3-0.8,4.5-2.5,5.7c-1,0.8-2.1,1.2-4,1.4c-1.4,0.1-3.2,0-4.3,0l-3.2,0v-0.2c0,0,0.2,0,0.3,0 c0.8-0.1,1.3-0.2,1.3-1.5c0,0,0.1-1.8,0.1-5.1c0-3.8-0.1-5.1-0.1-5.1c0-1.3-0.5-1.4-1.3-1.5c-0.1,0-0.3,0-0.3,0V2.7l2.2,0h0.5 c1.6,0,3.2-0.2,5.2,0C54.1,3,56.2,5.6,56.2,9.4z M45,16.5L45,16.5L45,16.5L45,16.5z M49,3.1c-0.8-0.1-2-0.1-2.8,0 c0,0.8,0,3.2,0,6.5c0,2.2,0,4,0,5.2c0,1,0.5,1.3,1.4,1.3c1.5,0.1,2.8-0.4,3.7-1.1c1.3-1,2.1-3,2.1-5.6C53.5,5.6,51.7,3.4,49,3.1z"></path> <path class="st1" d="M66.4,7.4l-0.6,2.2h-0.2c-0.3-1-1.1-1.4-1.7-1.5C63.5,8,62.4,8,61.7,8.8V12c0,1.8,0,3.1,0,3.1 c0,1,0.7,1.1,1.9,1.1v0.3h-0.1l-2.2,0h-0.1c-2.2,0-2.9,0-2.9,0h-0.1v-0.3c0.8-0.1,1.1-0.2,1.1-1.1c0,0,0-1.3,0-3.1 c0-1.7,0-2.6,0-3.1c0-0.3,0-0.5-0.3-0.5c-0.3,0-0.5,0-0.8,0.1l-0.1-0.3c0.7-0.2,2.9-0.9,3.4-1.2l0.1,0v1.4c0.7-0.8,1.8-1.2,2.4-1.3 C65,6.9,66.1,7.1,66.4,7.4z"></path> <path class="st1" d="M66.2,15.2c0-0.6,0.6-1.2,1.3-1.2c0.8,0,1.3,0.6,1.3,1.2c0,0.7-0.6,1.3-1.3,1.3C66.8,16.5,66.2,15.9,66.2,15.2 z"></path> <path class="st1" d="M91.1,16.2v0.3c-0.6,0-1.2-0.1-1.8-0.1c-0.7,0-3.1,0.1-3.8,0.1v-0.3c1,0,1.5-0.6,1.1-1.9l-0.1-0.4l0-0.1 c-0.8-2-1.4-2.6-3.5-2.7c-0.7,0-1.3-0.2-1.7-0.4c-0.3-0.1-0.5-0.4-0.6-0.7l-1.9,4.6c-0.5,1.3,0.8,1.6,1.6,1.5v0.3 c-0.7,0-1.9-0.1-2.7-0.1c-0.5,0-1,0.1-1.6,0.1v-0.3c0.3,0,1.5-0.1,2.1-1.5c1.8-4.2,5.2-12.5,5.2-12.5h0.6l5.3,12.3 C89.6,15.4,90.1,16.2,91.1,16.2z M83.4,10.8c0.8,0,1.4,0.1,1.7,0.2l-2.5-5.9l-1.2,3c-0.4,1.2-0.3,2,0.4,2.5 C82.3,10.8,83,10.8,83.4,10.8z"></path> <path class="st1" d="M104.3,16.2v0.3h-0.1c0,0-0.8,0-1.4,0h-0.1c-2.1,0-2.9,0-2.9,0h-0.1v-0.3c0.8-0.1,1.1-0.2,1.1-1.1v-2.8 c0-2.2,0-3.8-1.7-4.2c-0.9-0.1-2.6,0.2-3.5,1.4c0,0.7,0,1.5,0,2.3c0,2.1,0,3.3,0,3.3c0,1,0.3,1,1.1,1.1v0.3h-0.1c0,0-0.8,0-1.4,0 h-0.1c-2,0-2.9,0-2.9,0h-0.1v-0.3c0.8-0.1,1.1-0.2,1.2-1.1c0,0,0-1.3,0-3.3c0-2,0-2.5,0-3c0-0.3,0-0.5-0.3-0.5 c-0.3,0-0.5,0-0.8,0.1L92.2,8c1.5-0.5,2.3-0.7,3.5-1.2l0,0c0,0,0,0.9,0,2.1c1-1.2,2.6-2.2,4.1-2.2c1.2,0,2,0.3,2.6,1 c0.5,0.7,0.7,1.7,0.7,3.1c0,1.3,0,2.8,0,4.1C103.2,16.1,103.4,16.1,104.3,16.2z"></path> <path class="st1" d="M118.5,16.2v0.3h-0.1c0,0-0.8,0-1.4,0h-0.1c-2.1,0-2.9,0-2.9,0h-0.1v-0.3c0.8-0.1,1.1-0.2,1.1-1.1v-2.8 c0-2.2,0-3.8-1.7-4.2c-0.9-0.1-2.6,0.2-3.5,1.4c0,0.7,0,1.5,0,2.3c0,2.1,0,3.3,0,3.3c0,1,0.3,1,1.1,1.1v0.3h-0.1c0,0-0.8,0-1.4,0 h-0.1c-2,0-2.9,0-2.9,0h-0.1v-0.3c0.8-0.1,1.1-0.2,1.2-1.1c0,0,0-1.3,0-3.3c0-2,0-2.5,0-3c0-0.3,0-0.5-0.3-0.5 c-0.3,0-0.5,0-0.8,0.1L106.4,8c1.5-0.5,2.3-0.7,3.5-1.2l0,0c0,0,0,0.9,0,2.1c1-1.2,2.6-2.2,4.1-2.2c1.2,0,2,0.3,2.6,1 c0.5,0.7,0.7,1.7,0.7,3.1c0,1.3,0,2.8,0,4.1C117.4,16.1,117.6,16.1,118.5,16.2z"></path> <path class="st1" d="M131.2,16.2v0.3h-0.2c0,0-0.4,0-1.4,0h-1.4c-0.2,0-0.3,0-0.3,0c0-0.3-0.1-0.7-0.1-1.1 c-0.8,0.8-2.1,1.4-3.5,1.5c-2.4,0.1-3.5-1.3-3.6-2.4c-0.1-1.4,0.3-2.8,3.5-3.8c1-0.3,3.2-0.7,3.5-1.9c0-0.1,0-0.2,0-0.4 c0-0.4-0.2-0.6-0.4-0.9c-0.4-0.3-1.1-0.4-1.7-0.3c-1.4,0.1-2.7,1.2-3.4,3.1h-0.3l-0.6-2.2c0.5-0.4,1.6-0.9,2.9-1.1 c2-0.4,5.3-0.3,5.5,2.3c0.1,0.6,0.1,1.3,0.1,2c0,2.1,0.1,3.5,0.1,3.7v0v0c0,0.8,0.5,1.1,1.1,1.2C131.1,16.2,131.2,16.2,131.2,16.2z M127.8,14.9c0-0.9,0-1.9,0-3v-2c-0.3,0.4-0.8,0.7-2.3,1.2c-2.4,0.8-2.5,2.3-2.4,3c0.2,1.2,1.3,1.7,2.5,1.7 C126.4,15.8,127.3,15.4,127.8,14.9z"></path> <path class="st1" d="M137.1,7.3L137.1,7.3L137.1,7.3z M148,7.3c0,0-0.3,0-1,0H147c-0.7,0-2,0-2,0H145v0.3h0.1 c0.8,0,1.3,0.1,0.6,1.8l-2.1,5l-2.4-5.5c-0.3-0.7,0-1.4,1-1.3V7.3h-0.2c0,0-1,0-2.2,0h-0.1c-1.1,0-2.5,0-2.7,0v0.3 c0.5,0,1-0.1,1.8,1.4c0.1,0.3,0.9,2,3.8,8h0.5l3.3-8c0.5-1.2,1-1.4,1.7-1.4h0.1V7.3H148z"></path> <path class="st1" d="M148.7,11.8c0-3,2.2-4.9,5.3-4.9c3.1,0,5.2,2,5.1,5c0,2.8-2,5-5.2,5C150.9,16.9,148.7,14.7,148.7,11.8z M157,11.8c0-2.5-1.1-4.6-3-4.5C152,7.4,151,9.6,151,12c0,2.4,1.2,4.6,3.1,4.5C156.1,16.3,157,14.2,157,11.8z"></path> <path class="st1" d="M173.4,16.2v0.3h-0.1c0,0-0.8,0-1.4,0h-0.1c-2.1,0-2.9,0-2.9,0h-0.1v-0.3c0.8-0.1,1.1-0.2,1.1-1.1v-2.8 c0-2.2,0-3.8-1.7-4.2c-0.9-0.1-2.6,0.2-3.5,1.4c0,0.7,0,1.5,0,2.3c0,2.1,0,3.3,0,3.3c0,1,0.3,1,1.1,1.1v0.3h-0.1c0,0-0.8,0-1.4,0 h-0.1c-2,0-2.9,0-2.9,0h-0.1v-0.3c0.8-0.1,1.1-0.2,1.2-1.1c0,0,0-1.3,0-3.3c0-2,0-2.5,0-3c0-0.3,0-0.5-0.3-0.5 c-0.3,0-0.5,0-0.8,0.1L161.3,8c1.5-0.5,2.3-0.7,3.5-1.2l0,0c0,0,0,0.9,0,2.1c1-1.2,2.6-2.2,4.1-2.2c1.2,0,2,0.3,2.6,1 c0.5,0.7,0.7,1.7,0.7,3.1c0,1.3,0,2.8,0,4.1C172.3,16.1,172.5,16.1,173.4,16.2z"></path> <path class="st1" d="M194.4,13.2c-0.3,1.5-1.1,2.7-2.9,3.1c-0.7,0.2-1.6,0.3-2.4,0.3c-1.8,0-3.4-0.1-4.2-0.1c-2.3,0-3.5,0-3.5,0 v-0.2c0,0,0.2,0,0.3,0c0.8-0.1,1.1-0.2,1.2-1.5c0,0,0.1-1.4,0.1-5.2c0-3.7-0.1-5.2-0.1-5.2c0-1.3-0.4-1.4-1.2-1.5 c-0.1,0-0.3,0-0.3,0V2.7c0,0,1.1,0,3.4,0c0.8,0,1.8-0.1,2.9-0.1c3.6-0.1,5.4,1.2,5.1,3.8c-0.1,1.3-1,2-1.8,2.4 c0.3,0,0.5,0.1,0.8,0.2C193.6,9.4,194.7,11.1,194.4,13.2z M187.2,2.9c-1,0-1.8,0.2-2.1,0.3c0,0.6,0,1.7,0,3.1 c0.1,2.2,1.7,2.5,3.3,2.4c0.4,0,0.7,0,1.1,0c0.7-0.5,1.3-1.6,1.3-2.7C190.7,3.7,189,2.9,187.2,2.9z M188.6,9.1c-0.5,0-0.8,0-1.3,0 c-0.9,0-1.6-0.1-2.3-0.5v1.2c0,2.9,0,5.5,0.1,6.4c0.9,0.1,1.4,0.1,2.2,0c1.4,0,2.2-0.3,2.9-0.6c1.3-0.7,1.8-1.8,1.9-3.2 C192.2,10.7,191.1,9.1,188.6,9.1z"></path> <path class="st1" d="M196.4,11.8c0-3,2.2-4.9,5.3-4.9c3.1,0,5.2,2,5.1,5c0,2.8-2,5-5.2,5C198.6,16.9,196.4,14.7,196.4,11.8z M204.7,11.8c0-2.5-1.1-4.6-3-4.5c-1.9,0.1-2.9,2.3-2.9,4.7c0,2.4,1.2,4.6,3.1,4.5C203.8,16.3,204.7,14.2,204.7,11.8z"></path> <path class="st1" d="M221.1,16.2v0.3H221c0,0-0.8,0-1.4,0h-0.1c-2.1,0-2.9,0-2.9,0h-0.1v-0.3c0.8-0.1,1.1-0.2,1.1-1.1v-2.8 c0-2.2,0-3.8-1.7-4.2c-0.9-0.1-2.6,0.2-3.5,1.4c0,0.7,0,1.5,0,2.3c0,2.1,0,3.3,0,3.3c0,1,0.3,1,1.1,1.1v0.3h-0.1c0,0-0.8,0-1.4,0 H212c-2,0-2.9,0-2.9,0H209v-0.3c0.8-0.1,1.1-0.2,1.2-1.1c0,0,0-1.3,0-3.3c0-2,0-2.5,0-3c0-0.3,0-0.5-0.3-0.5c-0.3,0-0.5,0-0.8,0.1 L209,8c1.5-0.5,2.3-0.7,3.5-1.2l0,0c0,0,0,0.9,0,2.1c1-1.2,2.6-2.2,4.1-2.2c1.2,0,2,0.3,2.6,1c0.5,0.7,0.7,1.7,0.7,3.1 c0,1.3,0,2.8,0,4.1C220,16.1,220.2,16.1,221.1,16.2z"></path> <path class="st1" d="M228,16.2v0.3h-0.1c0,0-0.8,0-3,0h-0.1c-0.6,0-1.4,0-1.4,0h-0.1v-0.3c0.8-0.1,1.2-0.1,1.2-1.1c0,0,0-1.1,0-3.3 c0-2.2,0-2.5,0-3c0-0.3,0-0.5-0.3-0.5c-0.3,0-0.5,0-0.8,0.1L223.3,8c1.4-0.4,2.1-0.7,3.5-1.2l0.1,0c0,0,0,2.7,0,4.9 c0,2.3,0,3.3,0,3.3C226.8,16.1,227.1,16.1,228,16.2z M224.3,4.1c0-0.6,0.5-1.2,1.2-1.2c0.7,0,1.3,0.6,1.3,1.2 c0,0.7-0.5,1.3-1.3,1.3C224.9,5.4,224.3,4.8,224.3,4.1z"></path> <path class="st1" d="M242.4,16.2v0.3h-0.1c0,0-0.8,0-1.4,0h-0.1c-2.1,0-2.9,0-2.9,0h-0.1v-0.3c0.8-0.1,1.1-0.2,1.1-1.1v-2.8 c0-2.2,0-3.8-1.7-4.2c-0.9-0.1-2.6,0.2-3.5,1.4c0,0.7,0,1.5,0,2.3c0,2.1,0,3.3,0,3.3c0,1,0.3,1,1.1,1.1v0.3h-0.1c0,0-0.8,0-1.4,0 h-0.1c-2,0-2.9,0-2.9,0h-0.1v-0.3c0.8-0.1,1.1-0.2,1.2-1.1c0,0,0-1.3,0-3.3c0-2,0-2.5,0-3c0-0.3,0-0.5-0.3-0.5 c-0.3,0-0.5,0-0.8,0.1L230.3,8c1.5-0.5,2.3-0.7,3.5-1.2l0,0c0,0,0,0.9,0,2.1c1-1.2,2.6-2.2,4.1-2.2c1.2,0,2,0.3,2.6,1 c0.5,0.7,0.7,1.7,0.7,3.1c0,1.3,0,2.8,0,4.1C241.3,16.1,241.5,16.1,242.4,16.2z"></path> </g> <g> <path class="st1" d="M48.8,35.2l-4.4-4.5v4.3h-1v-6.6l4.4,4.5v-4.2l1-0.1V35.2z"></path> <path class="st1" d="M54.5,31.7c0-1.8,1.5-3.3,3.3-3.3c1.9,0,3.3,1.4,3.3,3.3c0,1.8-1.5,3.3-3.3,3.3C56,35,54.5,33.6,54.5,31.7z M60.2,31.7c0-1.3-1-2.3-2.3-2.3c-1.3,0-2.3,1-2.3,2.3c0,1.3,1,2.4,2.3,2.4C59.1,34.1,60.2,33,60.2,31.7z"></path> <path class="st1" d="M68.6,29.5v5.4h-1v-5.4h-1.7l0.2-0.9h4.1l0.2,0.9H68.6z"></path> <path class="st1" d="M78.5,33.1h-2.3l-0.8,1.8h-1l3-6.5l3,6.5h-1L78.5,33.1z M78.1,32.2l-0.8-1.9l-0.8,1.9H78.1z"></path> <path class="st1" d="M88.4,34.9l-1.9-2.6v2.6h-1v-6.3h1.5c1.4,0,2.3,0.8,2.3,2c0,0.9-0.6,1.7-1.6,1.9l1.9,2.5H88.4z M86.5,31.8H87 c0.8,0,1.3-0.5,1.3-1.2c0-0.7-0.5-1.2-1.3-1.2h-0.5V31.8z"></path> <path class="st1" d="M95.2,28.7l1-0.1v6.4h-1V28.7z"></path> <path class="st1" d="M107.6,35.2l-4.4-4.5v4.3h-1v-6.6l4.4,4.5v-4.2l1-0.1V35.2z"></path> </g> <g> <path class="st1" d="M6.7,13.1L6.7,13.1L6.7,13.1z M10.8,19c0,0.5-0.5,3.8-4.6,3.8c-1.1,0-1.9-0.2-2.6-0.6c0.9-0.9,0.7-2.1,1.3-3.1 c0.4-0.8,1.8-0.7,2.5-1.5c0.7-0.8,0.7-1.3,0.8-1.9h0l0.1-0.8c0.3-1.6,2.3-1.7,2.4-1.7c0,0,0,0,0.1,0L10.8,19z M12.5,19.1l0-7.6 l-0.8,0c0,0-0.6,0-1,0c-2.4,0.1-3.8,1.7-4,3.1l-0.1,0.8c0,0,0,0,0,0.1c-0.1,0.7-0.3,1.3-1.1,1.5c-1,0.3-2.1,0.3-2.2,2 c-0.1,1.1-0.5,1.6-0.8,2C1.8,20,1.8,19.1,1.8,19l0-5.9c0.9,0,2.2,0,3.1,0c0.3-0.2,0.7-0.5,1-0.9c0.2-0.3,0.4-0.5,0.4-0.8H5.9 c-0.4,0-5,0-5,0l-0.9,0L0.1,19c0,0.1,0,2.2,1.6,3.8c1.1,1.1,2.6,1.6,4.6,1.6C12.1,24.4,12.5,19.1,12.5,19.1L12.5,19.1z"></path> </g> </svg> 