<svg width="195" height="74" xmlns="http://www.w3.org/2000/svg">
	<g fill="none" fill-rule="evenodd">
		<path
			d="M4.768 32.648c.497-1.782 1.043-3.564 2.284-4.913 1.242-1.3 3.03-2.168 4.867-2.168 1.638 0 2.781.627 3.278.915 2.432 1.445 2.83 3.565 3.277 6.166H4.768zm18.524 3.518c-.1-3.084-.248-4.482-.596-5.975-.15-.624-.646-2.312-1.788-3.902-1.838-2.697-4.27-3.469-5.512-3.807a14.731 14.731 0 0 0-3.23-.385c-1.737 0-3.376.24-4.915.916a11.162 11.162 0 0 0-3.924 2.843C.25 29.229 0 33.13 0 34.672c0 3.855 1.638 8.048 4.667 10.456 3.03 2.505 6.905 2.699 8.245 2.699 2.334 0 4.023-.339 8.294-1.687v-4.337c-2.534 1.205-4.767 2.217-7.598 2.217-2.98 0-6.01-1.3-7.5-3.807-.795-1.446-1.242-3.662-1.34-4.047h18.524z"
			fill="#1D1D1B"
		/>
		<path
			d="M27.584 44.47c0-1.89 1.544-3.421 3.448-3.421s3.448 1.532 3.448 3.422c0 1.888-1.544 3.42-3.448 3.42s-3.448-1.532-3.448-3.42"
			fill="#B51F29"
		/>
		<path
			d="M61.589 34.6c.249-5.529 3.593-7.808 5.69-8.584 1.247-.436 1.996-.485 2.545-.485 1.896 0 3.295.777 3.894 1.115 3.893 2.28 4.042 6.498 4.042 7.857 0 1.357-.2 6.258-4.392 8.585a7.846 7.846 0 0 1-3.843 1.019 7.477 7.477 0 0 1-3.993-1.114c-4.045-2.475-3.993-6.987-3.943-8.393m-5.042.29c0 1.602.2 6.356 3.644 9.654 3.245 3.105 7.587 3.346 9.134 3.346 2.546 0 9.383-.727 12.279-7.518.399-.872 1.148-2.91 1.148-5.577 0-2.571-.799-9.362-7.985-12.03a14.018 14.018 0 0 0-4.992-.872c-3.545 0-7.089 1.309-9.484 3.687-3.345 3.25-3.744 7.758-3.744 9.31M91.313 22.386H86.89V47.84h4.718V35.755c.05-2.417.148-4.638 1.524-6.659.54-.839 2.359-3.157 5.553-3.208 1.328 0 2.26.446 2.702.692 2.41 1.282 2.655 4.093 2.802 4.883l.149 16.427h4.619V34.027c0-2.96 0-5.573-1.623-8.139-.932-1.38-3.096-3.995-7.37-3.995-2.36 0-4.966.789-6.782 2.22-.935.74-1.574 1.63-1.869 1.924v-3.651zM128.721 22.963c-2.203-.535-4.2-1.07-6.455-1.07-3.177 0-6.507 1.167-7.992 3.695-.82 1.408-.87 2.67-.87 3.352 0 2.429 1.075 3.886 1.69 4.517.921.924 2.459 1.75 2.716 1.895 1.075.584 2.15 1.167 3.278 1.75.717.39 1.793.826 2.358 1.362.256.29.92 1.068.92 2.186 0 1.408-1.28 3.353-4.66 3.353-2.255 0-4.151-.874-6.252-1.799l-.36 4.179c3.792 1.166 5.433 1.507 7.38 1.507 3.176 0 6.556-1.263 8.145-3.742.922-1.457 1.026-3.158 1.026-3.742 0-1.748-.617-3.546-1.795-4.761-.615-.584-1.485-1.12-2.253-1.554-1.076-.586-2.204-1.07-3.278-1.604-1.59-.778-3.792-1.848-3.843-3.79 0-.194.101-.876.511-1.507 1.127-1.602 3.38-1.554 3.843-1.554 1.998 0 3.637.583 5.532 1.215l.359-3.888zM133.782 23.31v15.569c.197 2.966.394 5.289 2.41 7.463 2.456 2.62 5.503 2.867 6.733 2.916 3.39 0 5.749-1.631 6.683-2.372.787-.692 1.67-1.779 1.817-1.927l.196 3.806h4.229V23.26h-4.668l-.198 13.788c-.295 2.176-.589 4.005-2.016 5.736-1.227 1.532-2.997 2.47-4.963 2.47-1.032 0-3.785-.296-4.963-3.163-.245-.594-.394-1.087-.541-2.323V23.31h-4.719zM161.366 47.89h4.138V10.946h-4.138zM168.262 22.36v3.508h5.96v14.08c.051 1.268.051 2.534.511 3.704.252.73.763 1.558 1.374 2.191 1.936 1.998 4.737 2.047 5.603 2.047 1.477 0 3.005-.292 4.431-.537l.051-3.896c-.307.097-1.731.632-2.954.632-2.547 0-3.464-1.558-3.82-2.435-.154-.438-.256-.926-.409-1.95V25.869h6.927V22.36h-6.927V15.05l-4.787 1.512v5.797h-5.96z"
			fill="#1D1D1B"
		/>
		<path
			d="M63.443 64.014v5.769c-14.575-7.146-21.96-18.74-22.066-34.643C41.271 19.073 48.711 7.222 63.434 0v5.805C51.952 12.612 46.558 22.041 46.65 35.14c.091 12.945 5.446 22.149 16.794 28.874M81.618 68.116h-3.296l1.647-4.07 1.649 4.07zm-5.762 3.035h1.245l.841-2.069h4.055l.84 2.069h1.294l-3.498-8.21H79.39l-3.533 8.21zM86.89 71.151h1.135v-3.346l2.751 3.346h1.63l-3.223-3.628 2.86-2.886H90.5l-2.474 2.644v-5.708H86.89zM96.45 64.754h-1.588v-1.813l-1.103.367v1.446h-1.353v.931h1.353v3.653c0 1.25.704 1.813 1.844 1.813.354 0 .694-.097.941-.17V70c-.165.11-.411.22-.752.22-.506 0-.93-.392-.93-1.114v-3.42h1.588v-.932zM99.302 62.964h1.38v-1.391h-1.38v1.391zm.078 8.187h1.224v-6.692H99.38v6.692zM103.249 67.101c.084-.844.536-1.818 1.629-1.818.962 0 1.511.82 1.511 1.818h-3.14zm3.864 2.424c-.274.243-1.128.653-1.867.653-1.057 0-1.997-.884-1.997-2.178h4.329c0-2.101-.655-3.69-2.675-3.69-1.712 0-2.842 1.37-2.842 3.305 0 2.128.987 3.536 3.139 3.536.998 0 1.487-.255 1.913-.422v-1.204zM110.336 71.151h1.15v-3.092c0-1.627.587-2.754 1.895-2.754 1.003.066 1.321.827 1.321 2.385v3.461h1.15v-3.972c0-1.795-.72-2.87-2.335-2.87-.87 0-1.702.459-2.044 1.219h-.024v-1.062h-1.113v6.685zM119.985 70.051c-1 0-1.615-1.081-1.615-2.317 0-1.12.534-2.447 1.615-2.447 1.138 0 1.695 1.173 1.695 2.537 0 1.223-.693 2.227-1.695 2.227zm2.764-5.587h-.99v.978h-.023c-.319-.707-.887-1.132-1.91-1.132-1.753 0-2.594 1.801-2.594 3.487 0 1.701.819 3.232 2.479 3.232.74 0 1.491-.335 1.947-1.016h.022v.643c0 1.392-.671 2.252-1.797 2.252-.785 0-1.275-.165-2.094-.59l-.113 1.12c.932.358 1.467.45 2.081.45 2.083 0 2.992-1.145 2.992-3.141v-6.283zM126.696 67.101c.084-.844.536-1.818 1.63-1.818.963 0 1.51.82 1.51 1.818h-3.14zm3.864 2.424c-.272.243-1.129.653-1.865.653-1.06 0-1.999-.884-1.999-2.178h4.328c0-2.101-.655-3.69-2.675-3.69-1.712 0-2.842 1.37-2.842 3.305 0 2.128.987 3.536 3.14 3.536.998 0 1.485-.255 1.913-.422v-1.204zM132.442 70.793c.553.295 1.186.358 1.804.358 1.174 0 2.295-.64 2.295-2.037 0-2.09-2.85-1.704-2.85-3.037 0-.537.543-.794 1.16-.794.285 0 1.006.167 1.276.334l.104-1.051c-.476-.142-.941-.256-1.508-.256-1.301 0-2.32.653-2.32 2.01 0 1.833 2.848 1.732 2.848 2.923 0 .705-.683.935-1.237.935-.347 0-1.03-.154-1.509-.461l-.063 1.076zM139.109 67.101c.082-.844.533-1.818 1.63-1.818.962 0 1.508.82 1.508 1.818h-3.138zm3.863 2.424c-.272.243-1.128.653-1.866.653-1.059 0-1.997-.884-1.997-2.178h4.328c0-2.101-.654-3.69-2.676-3.69-1.713 0-2.841 1.37-2.841 3.305 0 2.128.986 3.536 3.138 3.536 1 0 1.487-.255 1.914-.422v-1.204zM144.816 71.151h1.38v-9.578h-1.38zM148.954 71.151h1.379v-9.578h-1.38zM151.75 70.793c.555.295 1.187.358 1.804.358 1.174 0 2.296-.64 2.296-2.037 0-2.09-2.848-1.704-2.848-3.037 0-.537.54-.794 1.159-.794.283 0 1.004.167 1.277.334l.103-1.051c-.477-.142-.943-.256-1.508-.256-1.303 0-2.321.653-2.321 2.01 0 1.833 2.848 1.732 2.848 2.923 0 .705-.683.935-1.237.935-.347 0-1.03-.154-1.507-.461l-.066 1.076zM161.324 64.566c-.297-.142-.833-.256-1.25-.256-1.706 0-2.845 1.433-2.845 3.42 0 1.872 1.16 3.421 2.846 3.421.372 0 .865-.039 1.291-.268l-.075-1.077a1.925 1.925 0 0 1-1.106.372c-1.324 0-1.862-1.28-1.862-2.448 0-1.242.646-2.447 1.795-2.447.33 0 .723.09 1.117.282l.089-1zM164.125 71.151h1.15v-3.013c0-1.585.586-2.683 1.896-2.683 1.004.064 1.32.805 1.32 2.324v3.372h1.15v-3.87c0-1.75-.721-2.796-2.336-2.796-.869 0-1.59.394-2.006 1.085h-.024v-3.997h-1.15v9.578zM175.293 68.462c0 .973-.62 1.716-1.8 1.716-.546 0-1.204-.372-1.204-1.064 0-1.153 1.597-1.255 2.243-1.255.255 0 .507.025.761.025v.578zm-3.473-2.513c.48-.41 1.203-.666 1.876-.666 1.191 0 1.597.575 1.597 1.703-.468-.025-.799-.025-1.267-.025-1.23 0-3.005.513-3.005 2.153 0 1.423.975 2.037 2.37 2.037 1.09 0 1.724-.602 2.006-.999h.024v.846h1.117c-.028-.193-.052-.537-.052-1.28v-2.705c0-1.78-.747-2.703-2.6-2.703-.825 0-1.534.256-2.13.615l.064 1.024zM179.32 71.151h1.098v-5.456h1.578v-.955h-1.578v-.691c0-.868.118-1.521 1.064-1.521.188 0 .398.025.527.075l.045-.955a4.169 4.169 0 0 0-.736-.075c-1.624 0-1.998 1.017-1.998 2.575v.592h-1.403v.955h1.403v5.456zM187.476 64.754h-1.585v-1.813l-1.105.367v1.446h-1.352v.931h1.352v3.653c0 1.25.704 1.813 1.846 1.813.352 0 .692-.097.94-.17V70c-.166.11-.412.22-.753.22-.506 0-.928-.392-.928-1.114v-3.42h1.585v-.932zM189.54 13.254h.94c.503 0 .996.16.996.706 0 .624-.39.75-.997.75h-.94v-1.456zm-.791 4.197h.79v-2.127h.666l1.352 2.127h.835l-1.374-2.127c.755 0 1.249-.557 1.249-1.33 0-.91-.55-1.354-1.661-1.354h-1.857v4.811zm-1.766-2.4c0-1.968 1.433-3.49 3.358-3.49 1.903 0 3.335 1.522 3.335 3.49 0 1.968-1.432 3.491-3.335 3.491-1.925 0-3.358-1.523-3.358-3.49zm-.791 0c0 2.262 1.857 4.105 4.14 4.105 2.279 0 4.135-1.843 4.135-4.105 0-2.262-1.856-4.105-4.136-4.105-2.282 0-4.139 1.843-4.139 4.105z"
			fill="#1D1D1B"
		/>
	</g>
</svg>
