<svg
	xmlns="http://www.w3.org/2000/svg"
	viewBox="0 0 255.12 255.12"
	width="255"
	height="255"
>
	<defs>
		<style>
			.cls-1 {
				fill: #006eb6;
			}
			.cls-2 {
				fill: #0069b3;
			}
			.cls-3 {
				fill: #fff;
			}
		</style>
	</defs>
	<rect class="cls-1" width="255.12" height="255.12" />
	<path
		class="cls-1"
		d="M127.2,189.59H14.65v51.14h31a31.42,31.42,0,0,1-.18-4c.79-5.86,4.67-9.63,9-13.24a48.36,48.36,0,0,1,13.83-7.6,126.62,126.62,0,0,1,12.47-4,177.81,177.81,0,0,1,45.64-5.48l.63,0h.09l.61,0a177.94,177.94,0,0,1,45.67,5.48,126.25,126.25,0,0,1,12.45,4,48.87,48.87,0,0,1,13.85,7.6c4.38,3.61,8.26,7.38,9.05,13.24a31.42,31.42,0,0,1-.18,4h31V189.59Z"
	/>
	<polygon
		class="cls-1"
		points="14.94 181.86 14.94 153.93 21.1 153.93 21.1 164.62 32.4 164.62 32.4 153.93 38.52 153.93 38.52 181.86 32.4 181.86 32.4 169.81 21.1 169.81 21.1 181.86 14.94 181.86"
	/>
	<polygon
		class="cls-1"
		points="44.07 181.86 44.07 153.93 64.96 153.93 64.96 159.09 50.23 159.09 50.23 165.07 63.74 165.07 63.74 169.85 50.23 169.85 50.23 176.71 65.28 176.71 65.28 181.86 44.07 181.86"
	/>
	<path
		class="cls-1"
		d="M69.44,181.87v-28h15a8.09,8.09,0,0,1,5.94,2.24,7.3,7.3,0,0,1,2.25,5.48,8.13,8.13,0,0,1-1.06,4.31,6.51,6.51,0,0,1-3.34,2.68,5,5,0,0,1,3.14,2.55,8.45,8.45,0,0,1,.9,4.08c.07,1.16.14,2.26.23,3.39a7.57,7.57,0,0,0,.94,3.23H87.36a10,10,0,0,1-.63-3c-.14-1.28-.25-2.52-.34-3.72A5.57,5.57,0,0,0,85,171.92a4.61,4.61,0,0,0-3.29-1H75.6v11ZM75.6,158.7v7.85h6.7a4.64,4.64,0,0,0,3.19-1,3.91,3.91,0,0,0,1.06-3c0-2.6-1.43-3.88-4.25-3.88Z"
	/>
	<polygon
		class="cls-1"
		points="97.21 181.86 97.21 153.93 105.85 153.93 112.37 173.15 118.62 153.93 127.3 153.93 127.3 181.86 121.55 181.86 121.55 162.07 114.63 181.86 109.89 181.86 103.03 162.25 102.96 181.86 97.21 181.86"
	/>
	<path
		class="cls-1"
		d="M129.12,181.86l10.6-27.93H146l10.47,27.93H150.1L148,175.63H137.54l-2.22,6.23Zm10-10.79h7.22l-3.52-10.26Z"
	/>
	<polygon
		class="cls-1"
		points="159.09 181.86 159.09 153.93 165.21 153.93 176.85 172.67 176.91 153.93 182.67 153.93 182.67 181.86 176.55 181.86 164.91 163.15 164.84 181.86 159.09 181.86"
	/>
	<polygon
		class="cls-1"
		points="188.22 181.86 188.22 153.93 194.33 153.93 205.97 172.67 206.04 153.93 211.79 153.93 211.79 181.86 205.68 181.86 194.04 163.15 193.97 181.86 188.22 181.86"
	/>
	<path
		class="cls-1"
		d="M215.52,172.59h5.93a4.57,4.57,0,0,0,1.85,4,7.31,7.31,0,0,0,4.38,1.17,8.23,8.23,0,0,0,3.47-.65,3,3,0,0,0,1.94-2.82c0-1.29-.88-2.28-2.59-3-.45-.18-2.35-.7-5.71-1.6s-5.59-2-6.74-3.36a6.77,6.77,0,0,1-1.56-4.61,7.36,7.36,0,0,1,3.29-6.36,11.93,11.93,0,0,1,7.16-2.07,13.22,13.22,0,0,1,7.78,2.07,7.88,7.88,0,0,1,3.41,6.93h-6a3.71,3.71,0,0,0-1.67-3.39,7.46,7.46,0,0,0-3.86-.85,5.25,5.25,0,0,0-2.86.72,2.74,2.74,0,0,0-1.36,2.48,2.3,2.3,0,0,0,1.51,2.21,57.71,57.71,0,0,0,6.82,2,15.39,15.39,0,0,1,4.89,1.85,7,7,0,0,1,3.37,6.27,7.88,7.88,0,0,1-2.92,6.41c-2.07,1.69-5,2.55-8.68,2.55a13.56,13.56,0,0,1-8.26-2.37,8.84,8.84,0,0,1-3.63-7.56"
	/>
	<rect class="cls-2" y="0.02" width="255.1" height="255.1" />
	<path
		class="cls-3"
		d="M127.2,189.59H14.65v51.14h31a31.42,31.42,0,0,1-.18-4c.79-5.86,4.67-9.63,9-13.24a48.36,48.36,0,0,1,13.83-7.6,126.62,126.62,0,0,1,12.47-4,177.81,177.81,0,0,1,45.64-5.48l.63,0h.09l.61,0a177.94,177.94,0,0,1,45.67,5.48,126.25,126.25,0,0,1,12.45,4,48.87,48.87,0,0,1,13.85,7.6c4.38,3.61,8.26,7.38,9.05,13.24a31.42,31.42,0,0,1-.18,4h31V189.59Z"
	/>
	<polygon
		class="cls-3"
		points="14.94 181.86 14.94 153.93 21.1 153.93 21.1 164.62 32.4 164.62 32.4 153.93 38.52 153.93 38.52 181.86 32.4 181.86 32.4 169.81 21.1 169.81 21.1 181.86 14.94 181.86"
	/>
	<polygon
		class="cls-3"
		points="44.07 181.86 44.07 153.93 64.96 153.93 64.96 159.09 50.23 159.09 50.23 165.07 63.74 165.07 63.74 169.85 50.23 169.85 50.23 176.71 65.28 176.71 65.28 181.86 44.07 181.86"
	/>
	<path
		class="cls-3"
		d="M69.44,181.87v-28h15a8.09,8.09,0,0,1,5.94,2.24,7.3,7.3,0,0,1,2.25,5.48,8.13,8.13,0,0,1-1.06,4.31,6.51,6.51,0,0,1-3.34,2.68,5,5,0,0,1,3.14,2.55,8.45,8.45,0,0,1,.9,4.08c.07,1.16.14,2.26.23,3.39a7.57,7.57,0,0,0,.94,3.23H87.36a10,10,0,0,1-.63-3c-.14-1.28-.25-2.52-.34-3.72A5.57,5.57,0,0,0,85,171.92a4.61,4.61,0,0,0-3.29-1H75.6v11ZM75.6,158.7v7.85h6.7a4.64,4.64,0,0,0,3.19-1,3.91,3.91,0,0,0,1.06-3c0-2.6-1.43-3.88-4.25-3.88Z"
	/>
	<polygon
		class="cls-3"
		points="97.21 181.86 97.21 153.93 105.85 153.93 112.37 173.15 118.62 153.93 127.3 153.93 127.3 181.86 121.55 181.86 121.55 162.07 114.63 181.86 109.89 181.86 103.03 162.25 102.96 181.86 97.21 181.86"
	/>
	<path
		class="cls-3"
		d="M129.12,181.86l10.6-27.93H146l10.47,27.93H150.1L148,175.63H137.54l-2.22,6.23Zm10-10.79h7.22l-3.52-10.26Z"
	/>
	<polygon
		class="cls-3"
		points="159.09 181.86 159.09 153.93 165.21 153.93 176.85 172.67 176.91 153.93 182.67 153.93 182.67 181.86 176.55 181.86 164.91 163.15 164.84 181.86 159.09 181.86"
	/>
	<polygon
		class="cls-3"
		points="188.22 181.86 188.22 153.93 194.33 153.93 205.97 172.67 206.04 153.93 211.79 153.93 211.79 181.86 205.68 181.86 194.04 163.15 193.97 181.86 188.22 181.86"
	/>
	<path
		class="cls-3"
		d="M215.52,172.59h5.93a4.57,4.57,0,0,0,1.85,4,7.31,7.31,0,0,0,4.38,1.17,8.23,8.23,0,0,0,3.47-.65,3,3,0,0,0,1.94-2.82c0-1.29-.88-2.28-2.59-3-.45-.18-2.35-.7-5.71-1.6s-5.59-2-6.74-3.36a6.77,6.77,0,0,1-1.56-4.61,7.36,7.36,0,0,1,3.29-6.36,11.93,11.93,0,0,1,7.16-2.07,13.22,13.22,0,0,1,7.78,2.07,7.88,7.88,0,0,1,3.41,6.93h-6a3.71,3.71,0,0,0-1.67-3.39,7.46,7.46,0,0,0-3.86-.85,5.25,5.25,0,0,0-2.86.72,2.74,2.74,0,0,0-1.36,2.48,2.3,2.3,0,0,0,1.51,2.21,57.71,57.71,0,0,0,6.82,2,15.39,15.39,0,0,1,4.89,1.85,7,7,0,0,1,3.37,6.27,7.88,7.88,0,0,1-2.92,6.41c-2.07,1.69-5,2.55-8.68,2.55a13.56,13.56,0,0,1-8.26-2.37,8.84,8.84,0,0,1-3.63-7.56"
	/>
</svg>
