<svg xmlns="http://www.w3.org/2000/svg" width="85" height="85" fill="none">
	<g fill="#fff" clip-path="url(#a)">
		<path
			d="M72.94 32.73 50.273 55.399l-4-4 5.758-5.758a9.11 9.11 0 0 0 0-12.91 9.11 9.11 0 0 0-12.91 0l-5.757 5.758-4-4L52.03 11.821c8.424-8.424 22.485-6.97 27.121-6.212.758 4.667 2.213 18.728-6.212 27.152m-5.424 24.182L52.728 71.731V59.943l14.788-14.788zm-30.667-14.94 5.758-5.757c1.636-1.637 4.272-1.637 5.878 0 1.607 1.636 1.637 4.273 0 5.879l-5.757 5.757zm.242 19.031L23.697 47.64l5.88-5.879L42.97 55.155zm-12.303-29.03H13l14.788-14.758h11.788L24.818 32.002zm58.88-29.122a2.5 2.5 0 0 0-1.849-1.849c-.212-.06-5.333-1.242-11.94-1-8.939.334-16.333 3.182-21.394 8.243l-3.97 3.97H26.759a2.5 2.5 0 0 0-1.758.727L5.273 32.7c-1.546 1.546-.425 4.243 1.757 4.243h17.758l1.273 1.273-7.637 7.636c-.97.97-.97 2.545 0 3.515l16.91 16.91c.97.97 2.545.97 3.515 0l7.636-7.637 1.273 1.273V77.67c0 1 .606 1.909 1.546 2.303.878.363 1.939.212 2.697-.546l19.727-19.727a2.5 2.5 0 0 0 .727-1.758V40.185l3.97-3.97c8.485-7.848 9.515-24 7.243-33.333M22.849 61.883a2.487 2.487 0 0 0-3.515 0L.727 80.489c-.97.97-.97 2.545 0 3.515s2.546.97 3.515 0L22.85 65.398c.97-.97.97-2.546 0-3.515M3.606 63.186l10.636-5.303a2.5 2.5 0 0 0 1.122-3.334 2.5 2.5 0 0 0-3.334-1.12L1.394 58.73c-2.88 1.576-.758 5.788 2.212 4.455M30.182 69.398c-1.212-.606-2.727-.122-3.333 1.09l-5.364 10.637c-.606 1.212-.121 2.727 1.091 3.333s2.727.122 3.333-1.09l5.364-10.637c.606-1.212.121-2.727-1.09-3.333"
		/>
		<path
			d="M65.425 25.216c-1.636 1.636-4.273 1.636-5.879 0-3.757-4.061 1.849-9.637 5.88-5.88 1.635 1.637 1.635 4.274 0 5.88m-9.424-9.394a9.11 9.11 0 0 0 0 12.909c8.879 8.242 21.152-4.03 12.909-12.91a9.11 9.11 0 0 0-12.91 0"
		/>
	</g>
	<defs>
		<clipPath id="a"><path fill="#fff" d="M0 0h84.71v84.731H0z" /></clipPath>
	</defs>
</svg>
